<svg width="118" height="159" viewBox="0 0 118 159" fill="none" xmlns="http://www.w3.org/2000/svg">
<path d="M62.2038 143.983L62.1812 144.026L62.1671 144.072C61.3462 146.729 59.8569 148.544 57.8838 149.728C55.898 150.92 53.3892 151.492 50.5115 151.594C44.7462 151.797 37.6527 150.105 30.7171 147.963C23.87 145.848 17.2521 141.374 12.7768 136.067C8.29011 130.747 6.03677 124.695 7.67534 119.39C9.34461 113.986 12.5642 110.702 17.0267 109.259C21.523 107.805 27.3501 108.198 34.2443 110.328C41.1132 112.45 50.0241 117.408 56.2506 123.607C62.4987 129.826 65.8784 137.105 62.2038 143.983Z" fill="url(#paint0_linear_22_7)" stroke="#6B6767"/>
<path d="M108.873 36.2404C104.805 42.9366 101.256 45.5313 97.5377 46.2057C95.6606 46.5462 93.6991 46.4059 91.5425 46.0034C89.8307 45.6839 88.0234 45.2054 86.0515 44.6832C85.531 44.5454 84.999 44.4045 84.4543 44.2628C79.3951 42.946 74.5261 39.4391 71.2634 34.9541C68.0007 30.4691 66.3862 25.0682 67.7151 19.9622C69.0674 14.7663 71.5563 11.4312 74.9064 9.69904C78.2679 7.96102 82.5912 7.78729 87.7061 9.11853C92.8199 10.4495 100.156 14.0034 105.181 18.8756C107.69 21.3093 109.593 24.0427 110.38 26.9604C111.162 29.8598 110.853 32.9797 108.873 36.2404Z" fill="#C3D2D2" stroke="#575656"/>
<g filter="url(#filter0_d_22_7)">
<path d="M67.8725 14.6636C69.6532 11.2321 73.8785 9.89389 77.31 11.6746L107.266 27.2201C110.698 29.0008 112.036 33.2261 110.255 36.6576L63.6932 126.383C59.623 134.226 49.9652 137.285 42.1218 133.215L28.1424 125.96C20.2991 121.89 17.2403 112.232 21.3106 104.389L67.8725 14.6636Z" fill="#C3D2D2"/>
</g>
<path d="M25.9375 82.6732C28.5328 77.7828 34.6075 75.9317 39.4889 78.5438L75.7699 97.9585C80.6242 100.556 82.4656 106.589 79.8894 111.455L61.2098 146.735C58.8785 151.138 53.664 153.156 48.9974 151.411C43.357 149.302 36.2413 146.571 32.6453 144.911C26.1453 141.911 25.1453 141.911 25.1453 141.911L19.1453 138.911L13.1453 133.911L8.14534 128.411L7.00033 124.976C6.13505 122.381 6.37126 119.544 7.65391 117.127L25.9375 82.6732Z" fill="url(#paint1_linear_22_7)"/>
<path d="M25.9375 82.6732C28.5328 77.7828 34.6075 75.9317 39.4889 78.5438L75.7699 97.9585C80.6242 100.556 82.4656 106.589 79.8894 111.455L61.2098 146.735C58.8785 151.138 53.664 153.156 48.9974 151.411C43.357 149.302 36.2413 146.571 32.6453 144.911C26.1453 141.911 25.1453 141.911 25.1453 141.911L19.1453 138.911L13.1453 133.911L8.14534 128.411L7.00033 124.976C6.13505 122.381 6.37126 119.544 7.65391 117.127L25.9375 82.6732Z" fill="url(#paint2_linear_22_7)"/>
<path d="M81.0934 107.912C78.656 119.251 63.0988 117.416 49.33 114.456C35.5613 111.496 21.9759 98.9593 24.4132 87.6204C26.8506 76.2814 36.2146 72.7688 49.9834 75.7285C63.7522 78.6881 87.3888 92.8993 81.0934 107.912Z" fill="url(#paint3_linear_22_7)"/>
<path d="M81.0934 107.912C78.656 119.251 63.0988 117.416 49.33 114.456C35.5613 111.496 21.9759 98.9593 24.4132 87.6204C26.8506 76.2814 36.2146 72.7688 49.9834 75.7285C63.7522 78.6881 87.3888 92.8993 81.0934 107.912Z" fill="url(#paint4_linear_22_7)"/>
<path d="M61.4384 145.178C57.6513 156.14 42.429 152.442 29.1176 147.844C15.8063 143.245 3.832 129.161 7.61905 118.199C11.4061 107.237 21.1254 104.879 34.4367 109.478C47.7481 114.076 69.4984 131.034 61.4384 145.178Z" fill="url(#paint5_linear_22_7)"/>
<path d="M61.4384 145.178C57.6513 156.14 42.429 152.442 29.1176 147.844C15.8063 143.245 3.832 129.161 7.61905 118.199C11.4061 107.237 21.1254 104.879 34.4367 109.478C47.7481 114.076 69.4984 131.034 61.4384 145.178Z" fill="url(#paint6_linear_22_7)"/>
<path d="M29 79L37 75.2429L49.8827 75.2429C49.8827 75.2429 70.3682 81.8074 68.9532 84.7015C67.5383 87.5957 50.5 118 50.5 118L49 117L42.5298 113.243L33.5298 109.743L15.0298 103.743L29 79Z" fill="url(#paint7_linear_22_7)" fill-opacity="0.7"/>
<path d="M80 111.5L81 108L82 103L81 97L78 92C78 92 69.5 82.5 69 84.5C68.5 86.5001 50 118 50 118L55 121.5L59.5 126L61.5 129L63.5 133.5L64 140.5L80 111.5Z" fill="url(#paint8_linear_22_7)" fill-opacity="0.7"/>
<g filter="url(#filter1_f_22_7)">
<path d="M36.5 75.4795L68.2185 8.57667L75.5723 5.18332L79.8177 6.61103L88.2685 9.32417L102.488 16.1462L111.814 21.9667L112.017 27.1464L80.2545 93.0349L71.2296 85.3258L61.4222 80.5244L36.5 75.4795Z" fill="#9BACA9" fill-opacity="0.3"/>
<path d="M36.5 75.4795L68.2185 8.57667L75.5723 5.18332L79.8177 6.61103L88.2685 9.32417L102.488 16.1462L111.814 21.9667L112.017 27.1464L80.2545 93.0349L71.2296 85.3258L61.4222 80.5244L36.5 75.4795Z" fill="url(#paint9_linear_22_7)" fill-opacity="0.2"/>
<path d="M36.5 75.4795L68.2185 8.57667L75.5723 5.18332L79.8177 6.61103L88.2685 9.32417L102.488 16.1462L111.814 21.9667L112.017 27.1464L80.2545 93.0349L71.2296 85.3258L61.4222 80.5244L36.5 75.4795Z" fill="url(#paint10_linear_22_7)" fill-opacity="0.2"/>
</g>
<g filter="url(#filter2_b_22_7)">
<mask id="path-10-outside-1_22_7" maskUnits="userSpaceOnUse" x="83.2852" y="30.2946" width="24.8077" height="32.1" fill="black">
<rect fill="white" x="83.2852" y="30.2946" width="24.8077" height="32.1"/>
<path d="M88.4111 54.471L88.8199 54.6916L87.4619 57.208L87.0532 56.9874L88.4111 54.471ZM86.1325 55.3914L86.3774 54.9376L92.1564 58.0562C92.3914 58.183 92.6082 58.2419 92.8067 58.2329C93.0042 58.22 93.1789 58.1593 93.331 58.0509C93.482 57.9387 93.6033 57.7976 93.6951 57.6276C93.7396 57.5451 93.7718 57.4705 93.7917 57.4037C93.8129 57.3345 93.8284 57.2669 93.838 57.2011L94.315 57.3133C94.3022 57.3968 94.2817 57.4857 94.2533 57.5802C94.2274 57.676 94.1835 57.7814 94.1214 57.8964C93.9919 58.1364 93.8154 58.3349 93.5918 58.4919C93.3696 58.6464 93.1203 58.7346 92.8438 58.7564C92.5673 58.7783 92.284 58.711 91.994 58.5545L86.1325 55.3914ZM96.3293 53.8679C96.0729 54.3429 95.7174 54.6966 95.2627 54.929C94.8055 55.1601 94.2946 55.2604 93.7299 55.2301C93.1652 55.1997 92.5953 55.0294 92.0203 54.7191C91.4428 54.4074 90.9876 54.0246 90.6548 53.5706C90.3194 53.1152 90.1228 52.6331 90.065 52.1241C90.0072 51.6151 90.1064 51.1231 90.3628 50.6481C90.6191 50.1731 90.9759 49.82 91.4331 49.589C91.8903 49.3579 92.4012 49.2576 92.9659 49.2879C93.5306 49.3183 94.1005 49.4886 94.6755 49.7989C95.2505 50.1092 95.7057 50.4921 96.041 50.9474C96.3764 51.4028 96.5729 51.8849 96.6308 52.3939C96.6861 52.9016 96.5856 53.3929 96.3293 53.8679ZM95.9055 53.6392C96.1227 53.2367 96.1985 52.824 96.1329 52.4013C96.0686 51.976 95.8873 51.5763 95.5888 51.2021C95.2917 50.8255 94.9056 50.509 94.4306 50.2527C93.9556 49.9963 93.4804 49.848 93.005 49.8078C92.5271 49.7662 92.0934 49.834 91.704 50.0112C91.3121 50.1871 91.0075 50.4763 90.7903 50.8788C90.5731 51.2813 90.4985 51.6946 90.5666 52.1188C90.6322 52.5416 90.8136 52.9413 91.1107 53.3179C91.4053 53.6932 91.7902 54.009 92.2652 54.2653C92.7402 54.5217 93.216 54.6719 93.6926 54.716C94.1705 54.7576 94.6041 54.6898 94.9935 54.5126C95.3843 54.3329 95.6883 54.0417 95.9055 53.6392ZM98.3873 49.767L92.6271 46.6585L92.8679 46.2123L93.768 46.698L93.7902 46.6567C93.5627 46.3725 93.4404 46.0338 93.4235 45.6405C93.404 45.2458 93.4968 44.8585 93.7019 44.4785C93.7235 44.4385 93.7451 44.3985 93.7666 44.3585C93.7882 44.3185 93.8097 44.2816 93.8311 44.248L94.2924 44.4969C94.2737 44.5256 94.2504 44.5598 94.2224 44.5996C94.1934 44.6355 94.1626 44.6835 94.1302 44.7435C93.9575 45.0635 93.8725 45.3856 93.8751 45.7099C93.879 46.0316 93.9638 46.3291 94.1294 46.6025C94.2925 46.8745 94.5291 47.0942 94.8391 47.2615L98.6342 49.3095L98.3873 49.767ZM101.521 44.2478C101.256 44.7378 100.895 45.0996 100.436 45.3332C99.9752 45.5654 99.463 45.6651 98.8997 45.6322C98.3377 45.5969 97.7717 45.4254 97.2016 45.1178C96.6316 44.8102 96.1783 44.4299 95.8416 43.9771C95.5049 43.5242 95.307 43.0414 95.2481 42.5285C95.1891 42.0157 95.2905 41.5168 95.5522 41.0318C95.7492 40.6668 96.0036 40.3747 96.3155 40.1557C96.6288 39.9341 96.9725 39.7967 97.3466 39.7436C97.722 39.688 98.1008 39.7277 98.483 39.863L98.2321 40.328C97.8016 40.1925 97.3779 40.206 96.961 40.3684C96.5429 40.5269 96.2165 40.8237 95.9817 41.2587C95.7713 41.6488 95.6937 42.0556 95.7491 42.4794C95.8021 42.9018 95.9738 43.3043 96.2644 43.6871C96.5524 44.0686 96.944 44.3928 97.439 44.66C97.9265 44.9231 98.4099 45.0742 98.8892 45.1133C99.3659 45.151 99.7991 45.0781 100.189 44.8945C100.578 44.711 100.881 44.4192 101.097 44.0191C101.249 43.7366 101.332 43.4488 101.345 43.1555C101.359 42.8598 101.305 42.5772 101.183 42.3077C101.06 42.0382 100.874 41.8036 100.623 41.6039L100.874 41.1388C101.2 41.3854 101.445 41.6791 101.609 42.0198C101.774 42.3605 101.851 42.7233 101.84 43.1081C101.83 43.4929 101.723 43.8728 101.521 44.2478ZM99.9079 38.0122L103.643 40.0279L103.396 40.4854L95.7158 36.3408L95.9627 35.8832L98.7941 37.4112L98.8184 37.3662C98.5912 37.0693 98.4685 36.7254 98.4502 36.3346C98.4307 35.94 98.533 35.5351 98.7569 35.1201C98.9661 34.7326 99.2327 34.4359 99.5569 34.2299C99.8786 34.0226 100.237 33.9187 100.631 33.9183C101.023 33.914 101.431 34.0259 101.854 34.2539L105.653 36.304L105.408 36.7578L101.628 34.7178C101.135 34.452 100.661 34.3851 100.206 34.5171C99.7504 34.649 99.3932 34.955 99.1342 35.435C98.9601 35.7576 98.875 36.0829 98.8787 36.4109C98.8824 36.739 98.9714 37.0436 99.1457 37.3249C99.3188 37.6023 99.5729 37.8314 99.9079 38.0122Z"/>
</mask>
<path d="M88.4111 54.471L88.8199 54.6916L87.4619 57.208L87.0532 56.9874L88.4111 54.471ZM86.1325 55.3914L86.3774 54.9376L92.1564 58.0562C92.3914 58.183 92.6082 58.2419 92.8067 58.2329C93.0042 58.22 93.1789 58.1593 93.331 58.0509C93.482 57.9387 93.6033 57.7976 93.6951 57.6276C93.7396 57.5451 93.7718 57.4705 93.7917 57.4037C93.8129 57.3345 93.8284 57.2669 93.838 57.2011L94.315 57.3133C94.3022 57.3968 94.2817 57.4857 94.2533 57.5802C94.2274 57.676 94.1835 57.7814 94.1214 57.8964C93.9919 58.1364 93.8154 58.3349 93.5918 58.4919C93.3696 58.6464 93.1203 58.7346 92.8438 58.7564C92.5673 58.7783 92.284 58.711 91.994 58.5545L86.1325 55.3914ZM96.3293 53.8679C96.0729 54.3429 95.7174 54.6966 95.2627 54.929C94.8055 55.1601 94.2946 55.2604 93.7299 55.2301C93.1652 55.1997 92.5953 55.0294 92.0203 54.7191C91.4428 54.4074 90.9876 54.0246 90.6548 53.5706C90.3194 53.1152 90.1228 52.6331 90.065 52.1241C90.0072 51.6151 90.1064 51.1231 90.3628 50.6481C90.6191 50.1731 90.9759 49.82 91.4331 49.589C91.8903 49.3579 92.4012 49.2576 92.9659 49.2879C93.5306 49.3183 94.1005 49.4886 94.6755 49.7989C95.2505 50.1092 95.7057 50.4921 96.041 50.9474C96.3764 51.4028 96.5729 51.8849 96.6308 52.3939C96.6861 52.9016 96.5856 53.3929 96.3293 53.8679ZM95.9055 53.6392C96.1227 53.2367 96.1985 52.824 96.1329 52.4013C96.0686 51.976 95.8873 51.5763 95.5888 51.2021C95.2917 50.8255 94.9056 50.509 94.4306 50.2527C93.9556 49.9963 93.4804 49.848 93.005 49.8078C92.5271 49.7662 92.0934 49.834 91.704 50.0112C91.3121 50.1871 91.0075 50.4763 90.7903 50.8788C90.5731 51.2813 90.4985 51.6946 90.5666 52.1188C90.6322 52.5416 90.8136 52.9413 91.1107 53.3179C91.4053 53.6932 91.7902 54.009 92.2652 54.2653C92.7402 54.5217 93.216 54.6719 93.6926 54.716C94.1705 54.7576 94.6041 54.6898 94.9935 54.5126C95.3843 54.3329 95.6883 54.0417 95.9055 53.6392ZM98.3873 49.767L92.6271 46.6585L92.8679 46.2123L93.768 46.698L93.7902 46.6567C93.5627 46.3725 93.4404 46.0338 93.4235 45.6405C93.404 45.2458 93.4968 44.8585 93.7019 44.4785C93.7235 44.4385 93.7451 44.3985 93.7666 44.3585C93.7882 44.3185 93.8097 44.2816 93.8311 44.248L94.2924 44.4969C94.2737 44.5256 94.2504 44.5598 94.2224 44.5996C94.1934 44.6355 94.1626 44.6835 94.1302 44.7435C93.9575 45.0635 93.8725 45.3856 93.8751 45.7099C93.879 46.0316 93.9638 46.3291 94.1294 46.6025C94.2925 46.8745 94.5291 47.0942 94.8391 47.2615L98.6342 49.3095L98.3873 49.767ZM101.521 44.2478C101.256 44.7378 100.895 45.0996 100.436 45.3332C99.9752 45.5654 99.463 45.6651 98.8997 45.6322C98.3377 45.5969 97.7717 45.4254 97.2016 45.1178C96.6316 44.8102 96.1783 44.4299 95.8416 43.9771C95.5049 43.5242 95.307 43.0414 95.2481 42.5285C95.1891 42.0157 95.2905 41.5168 95.5522 41.0318C95.7492 40.6668 96.0036 40.3747 96.3155 40.1557C96.6288 39.9341 96.9725 39.7967 97.3466 39.7436C97.722 39.688 98.1008 39.7277 98.483 39.863L98.2321 40.328C97.8016 40.1925 97.3779 40.206 96.961 40.3684C96.5429 40.5269 96.2165 40.8237 95.9817 41.2587C95.7713 41.6488 95.6937 42.0556 95.7491 42.4794C95.8021 42.9018 95.9738 43.3043 96.2644 43.6871C96.5524 44.0686 96.944 44.3928 97.439 44.66C97.9265 44.9231 98.4099 45.0742 98.8892 45.1133C99.3659 45.151 99.7991 45.0781 100.189 44.8945C100.578 44.711 100.881 44.4192 101.097 44.0191C101.249 43.7366 101.332 43.4488 101.345 43.1555C101.359 42.8598 101.305 42.5772 101.183 42.3077C101.06 42.0382 100.874 41.8036 100.623 41.6039L100.874 41.1388C101.2 41.3854 101.445 41.6791 101.609 42.0198C101.774 42.3605 101.851 42.7233 101.84 43.1081C101.83 43.4929 101.723 43.8728 101.521 44.2478ZM99.9079 38.0122L103.643 40.0279L103.396 40.4854L95.7158 36.3408L95.9627 35.8832L98.7941 37.4112L98.8184 37.3662C98.5912 37.0693 98.4685 36.7254 98.4502 36.3346C98.4307 35.94 98.533 35.5351 98.7569 35.1201C98.9661 34.7326 99.2327 34.4359 99.5569 34.2299C99.8786 34.0226 100.237 33.9187 100.631 33.9183C101.023 33.914 101.431 34.0259 101.854 34.2539L105.653 36.304L105.408 36.7578L101.628 34.7178C101.135 34.452 100.661 34.3851 100.206 34.5171C99.7504 34.649 99.3932 34.955 99.1342 35.435C98.9601 35.7576 98.875 36.0829 98.8787 36.4109C98.8824 36.739 98.9714 37.0436 99.1457 37.3249C99.3188 37.6023 99.5729 37.8314 99.9079 38.0122Z" fill="#61ECFF"/>
<path d="M88.4111 54.471L88.886 53.591L88.006 53.1161L87.5311 53.9961L88.4111 54.471ZM88.8199 54.6916L89.6999 55.1665L90.1748 54.2865L89.2948 53.8116L88.8199 54.6916ZM87.4619 57.208L86.987 58.088L87.8671 58.5629L88.342 57.6829L87.4619 57.208ZM87.0532 56.9874L86.1731 56.5125L85.6982 57.3925L86.5783 57.8674L87.0532 56.9874ZM86.1325 55.3914L85.2525 54.9165L84.7776 55.7965L85.6576 56.2714L86.1325 55.3914ZM86.3774 54.9376L86.8523 54.0576L85.9722 53.5827L85.4973 54.4627L86.3774 54.9376ZM92.8067 58.2329L92.8523 59.2318L92.8621 59.2314L92.8719 59.2307L92.8067 58.2329ZM93.331 58.0509L93.9113 58.8653L93.9196 58.8595L93.9277 58.8534L93.331 58.0509ZM93.7917 57.4037L92.8356 57.1106L92.8333 57.1183L93.7917 57.4037ZM93.838 57.2011L94.0669 56.2277L93.0072 55.9786L92.8487 57.0556L93.838 57.2011ZM94.315 57.3133L95.3035 57.4645L95.4433 56.5513L94.5439 56.3398L94.315 57.3133ZM94.2533 57.5802L93.2956 57.2925L93.2915 57.3059L93.2879 57.3195L94.2533 57.5802ZM93.5918 58.4919L94.1627 59.3129L94.1666 59.3102L93.5918 58.4919ZM92.8438 58.7564L92.7649 57.7596L92.8438 58.7564ZM87.9362 55.3511L88.345 55.5717L89.2948 53.8116L88.886 53.591L87.9362 55.3511ZM87.9398 54.2167L86.5819 56.7331L88.342 57.6829L89.6999 55.1665L87.9398 54.2167ZM87.9368 56.3279L87.5281 56.1074L86.5783 57.8674L86.987 58.088L87.9368 56.3279ZM87.9332 57.4623L89.2911 54.946L87.5311 53.9961L86.1731 56.5125L87.9332 57.4623ZM87.0125 55.8663L87.2574 55.4125L85.4973 54.4627L85.2525 54.9165L87.0125 55.8663ZM85.9025 55.8176L91.6814 58.9362L92.6313 57.1762L86.8523 54.0576L85.9025 55.8176ZM91.6814 58.9362C92.023 59.1205 92.4207 59.2515 92.8523 59.2318L92.7612 57.2339C92.7956 57.2323 92.7598 57.2455 92.6313 57.1762L91.6814 58.9362ZM92.8719 59.2307C93.2433 59.2065 93.5988 59.088 93.9113 58.8653L92.7507 57.2365C92.7507 57.2366 92.7516 57.2359 92.7534 57.235C92.7552 57.2341 92.7569 57.2334 92.7581 57.233C92.7592 57.2326 92.7589 57.2328 92.7567 57.2332C92.7544 57.2337 92.7495 57.2345 92.7415 57.235L92.8719 59.2307ZM93.9277 58.8534C94.1991 58.6516 94.4159 58.3975 94.5751 58.1025L92.815 57.1527C92.7908 57.1977 92.7649 57.2258 92.7344 57.2484L93.9277 58.8534ZM94.5751 58.1025C94.6418 57.9789 94.7052 57.8397 94.7501 57.6891L92.8333 57.1183C92.8362 57.1084 92.8375 57.1065 92.8344 57.1135C92.8315 57.1204 92.8255 57.1333 92.815 57.1527L94.5751 58.1025ZM94.7478 57.6968C94.7825 57.5835 94.8097 57.4666 94.8274 57.3467L92.8487 57.0556C92.847 57.0672 92.8433 57.0854 92.8356 57.1106L94.7478 57.6968ZM93.6092 58.1746L94.0862 58.2867L94.5439 56.3398L94.0669 56.2277L93.6092 58.1746ZM93.3265 57.162C93.3219 57.1925 93.3127 57.2356 93.2956 57.2925L95.211 57.8679C95.2507 57.7359 95.2826 57.601 95.3035 57.4645L93.3265 57.162ZM93.2879 57.3195C93.2879 57.3193 93.2856 57.328 93.278 57.3461C93.2705 57.3641 93.2588 57.3891 93.2414 57.4215L95.0014 58.3713C95.0893 58.2085 95.1676 58.0303 95.2187 57.8409L93.2879 57.3195ZM93.2414 57.4215C93.1857 57.5246 93.1138 57.6056 93.0171 57.6736L94.1666 59.3102C94.5169 59.0642 94.7981 58.7482 95.0014 58.3713L93.2414 57.4215ZM93.0209 57.6709C92.948 57.7216 92.8694 57.7513 92.7649 57.7596L92.9226 59.7533C93.3712 59.7179 93.7912 59.5712 94.1627 59.3129L93.0209 57.6709ZM92.7649 57.7596C92.714 57.7636 92.6218 57.757 92.4689 57.6745L91.5191 59.4345C91.9462 59.665 92.4205 59.7931 92.9226 59.7533L92.7649 57.7596ZM92.4689 57.6745L86.6074 54.5113L85.6576 56.2714L91.5191 59.4345L92.4689 57.6745ZM95.2627 54.929L95.7138 55.8215L95.7178 55.8195L95.2627 54.929ZM93.7299 55.2301L93.6762 56.2286L93.7299 55.2301ZM90.6548 53.5706L91.4613 52.9794L91.46 52.9776L90.6548 53.5706ZM90.065 52.1241L89.0714 52.237L89.0714 52.237L90.065 52.1241ZM91.4331 49.589L90.982 48.6965L90.982 48.6965L91.4331 49.589ZM92.9659 49.2879L93.0196 48.2894L93.0196 48.2894L92.9659 49.2879ZM96.041 50.9474L95.2358 51.5404L96.041 50.9474ZM96.6308 52.3939L97.6249 52.2856L97.6244 52.281L96.6308 52.3939ZM96.1329 52.4013L95.1441 52.5507L95.1447 52.5546L96.1329 52.4013ZM95.5888 51.2021L94.8037 51.8215L94.8071 51.8258L95.5888 51.2021ZM93.005 49.8078L92.9182 50.804L92.9206 50.8042L93.005 49.8078ZM91.704 50.0112L92.1134 50.9235L92.1182 50.9214L91.704 50.0112ZM90.5666 52.1188L91.5548 51.9654L91.554 51.9602L90.5666 52.1188ZM91.1107 53.3179L91.8973 52.7004L91.8958 52.6985L91.1107 53.3179ZM93.6926 54.716L93.6004 55.7118L93.6058 55.7123L93.6926 54.716ZM94.9935 54.5126L95.4078 55.4228L95.4114 55.4211L94.9935 54.5126ZM95.4492 53.393C95.2833 53.7004 95.0712 53.9038 94.8076 54.0386L95.7178 55.8195C96.3636 55.4894 96.8625 54.9854 97.2093 54.3428L95.4492 53.393ZM94.8117 54.0365C94.5264 54.1807 94.1922 54.2535 93.7835 54.2315L93.6762 56.2286C94.3969 56.2674 95.0847 56.1395 95.7138 55.8215L94.8117 54.0365ZM93.7835 54.2315C93.3876 54.2102 92.9604 54.0901 92.4952 53.8391L91.5454 55.5991C92.2302 55.9687 92.9428 56.1892 93.6762 56.2286L93.7835 54.2315ZM92.4952 53.8391C92.0267 53.5863 91.693 53.2954 91.4613 52.9794L89.8483 54.1618C90.2822 54.7538 90.8588 55.2286 91.5454 55.5991L92.4952 53.8391ZM91.46 52.9776C91.2173 52.6481 91.0947 52.3288 91.0586 52.0112L89.0714 52.237C89.151 52.9374 89.4216 53.5824 89.8495 54.1636L91.46 52.9776ZM91.0586 52.0112C91.0251 51.7164 91.0779 51.4285 91.2428 51.123L89.4827 50.1732C89.1349 50.8177 88.9892 51.5138 89.0714 52.237L91.0586 52.0112ZM91.2428 51.123C91.4077 50.8175 91.6193 50.6153 91.8841 50.4815L90.982 48.6965C90.3325 49.0248 89.8306 49.5287 89.4827 50.1732L91.2428 51.123ZM91.8841 50.4815C92.1694 50.3373 92.5035 50.2645 92.9122 50.2865L93.0196 48.2894C92.2989 48.2506 91.6111 48.3786 90.982 48.6965L91.8841 50.4815ZM92.9122 50.2865C93.3082 50.3078 93.7353 50.4279 94.2006 50.6789L95.1504 48.9189C94.4656 48.5493 93.753 48.3288 93.0196 48.2894L92.9122 50.2865ZM94.2006 50.6789C94.6658 50.93 95.0007 51.2211 95.2358 51.5404L96.8462 50.3544C96.4107 49.763 95.8352 49.2884 95.1504 48.9189L94.2006 50.6789ZM95.2358 51.5404C95.4785 51.87 95.6011 52.1892 95.6372 52.5068L97.6244 52.281C97.5448 51.5807 97.2742 50.9356 96.8462 50.3544L95.2358 51.5404ZM95.6367 52.5023C95.6687 52.7966 95.6151 53.0856 95.4492 53.393L97.2093 54.3428C97.5561 53.7002 97.7035 53.0065 97.6249 52.2856L95.6367 52.5023ZM96.7855 54.1141C97.0987 53.5337 97.2225 52.9016 97.1211 52.2479L95.1447 52.5546C95.1745 52.7464 95.1467 52.9397 95.0255 53.1643L96.7855 54.1141ZM97.1217 52.2519C97.0283 51.6341 96.7658 51.074 96.3705 50.5785L94.8071 51.8258C95.0088 52.0786 95.109 52.3179 95.1441 52.5507L97.1217 52.2519ZM96.3739 50.5828C95.9823 50.0864 95.4856 49.6857 94.9055 49.3726L93.9557 51.1327C94.3256 51.3324 94.6011 51.5647 94.8037 51.8215L96.3739 50.5828ZM94.9055 49.3726C94.3255 49.0597 93.7184 48.8646 93.0894 48.8113L92.9206 50.8042C93.2423 50.8315 93.5856 50.933 93.9557 51.1327L94.9055 49.3726ZM93.0917 48.8115C92.4634 48.7568 91.8542 48.8441 91.2897 49.101L92.1182 50.9214C92.3325 50.8238 92.5907 50.7755 92.9182 50.804L93.0917 48.8115ZM91.2945 49.0989C90.6885 49.3709 90.2247 49.8212 89.9103 50.4039L91.6703 51.3537C91.7903 51.1314 91.9357 51.0033 92.1134 50.9235L91.2945 49.0989ZM89.9103 50.4039C89.5958 50.9866 89.474 51.6214 89.5793 52.2773L91.554 51.9602C91.5231 51.7679 91.5504 51.576 91.6703 51.3537L89.9103 50.4039ZM89.5785 52.2721C89.6736 52.885 89.935 53.4421 90.3256 53.9373L91.8958 52.6985C91.6922 52.4404 91.5909 52.1981 91.5548 51.9654L89.5785 52.2721ZM90.3242 53.9354C90.714 54.432 91.2103 54.8324 91.7903 55.1454L92.7401 53.3853C92.37 53.1856 92.0967 52.9544 91.8973 52.7004L90.3242 53.9354ZM91.7903 55.1454C92.3687 55.4575 92.9736 55.6538 93.6004 55.7118L93.7847 53.7203C93.4583 53.6901 93.1117 53.5859 92.7401 53.3853L91.7903 55.1454ZM93.6058 55.7123C94.2341 55.767 94.8433 55.6797 95.4078 55.4228L94.5793 53.6024C94.365 53.7 94.1068 53.7483 93.7793 53.7198L93.6058 55.7123ZM95.4114 55.4211C96.0121 55.1448 96.4723 54.6946 96.7855 54.1141L95.0255 53.1643C94.9043 53.3889 94.7565 53.5209 94.5756 53.6041L95.4114 55.4211ZM98.3873 49.767L97.9124 50.6471L98.7925 51.122L99.2674 50.2419L98.3873 49.767ZM92.6271 46.6585L91.7471 46.1836L91.2722 47.0637L92.1522 47.5386L92.6271 46.6585ZM92.8679 46.2123L93.3428 45.3322L92.4628 44.8573L91.9879 45.7374L92.8679 46.2123ZM93.768 46.698L93.2931 47.578L94.1731 48.0529L94.648 47.1729L93.768 46.698ZM93.7902 46.6567L94.6703 47.1316L94.9848 46.5488L94.5708 46.0317L93.7902 46.6567ZM93.4235 45.6405L94.4226 45.5974L94.4222 45.5912L93.4235 45.6405ZM93.8311 44.248L94.306 43.3679L93.4866 42.9257L92.9871 43.7116L93.8311 44.248ZM94.2924 44.4969L95.1299 45.0433L95.7237 44.133L94.7673 43.6169L94.2924 44.4969ZM94.2224 44.5996L94.9999 45.2285L95.0213 45.202L95.041 45.1741L94.2224 44.5996ZM93.8751 45.7099L92.8751 45.7178L92.8752 45.7221L93.8751 45.7099ZM94.1294 46.6025L94.987 46.0882L94.9847 46.0844L94.1294 46.6025ZM98.6342 49.3095L99.5143 49.7844L99.9892 48.9044L99.1091 48.4295L98.6342 49.3095ZM98.8622 48.887L93.102 45.7785L92.1522 47.5386L97.9124 50.6471L98.8622 48.887ZM93.5071 47.1335L93.748 46.6872L91.9879 45.7374L91.7471 46.1836L93.5071 47.1335ZM92.393 47.0923L93.2931 47.578L94.2429 45.8179L93.3428 45.3322L92.393 47.0923ZM94.648 47.1729L94.6703 47.1316L92.9102 46.1818L92.8879 46.2231L94.648 47.1729ZM94.5708 46.0317C94.4871 45.9271 94.4311 45.7967 94.4225 45.5974L92.4244 45.6835C92.4497 46.2709 92.6383 46.818 93.0096 47.2817L94.5708 46.0317ZM94.4222 45.5912C94.4126 45.3956 94.4552 45.1882 94.5819 44.9534L92.8219 44.0036C92.5384 44.5288 92.3954 45.096 92.4247 45.6897L94.4222 45.5912ZM94.5819 44.9534C94.582 44.9533 94.582 44.9532 94.582 44.9531C94.5821 44.9531 94.5821 44.953 94.5822 44.9529C94.5822 44.9528 94.5823 44.9527 94.5823 44.9527C94.5823 44.9526 94.5824 44.9525 94.5824 44.9524C94.5825 44.9524 94.5825 44.9523 94.5826 44.9522C94.5826 44.9521 94.5826 44.952 94.5827 44.952C94.5827 44.9519 94.5828 44.9518 94.5828 44.9517C94.5828 44.9517 94.5829 44.9516 94.5829 44.9515C94.583 44.9514 94.583 44.9513 94.5831 44.9513C94.5831 44.9512 94.5831 44.9511 94.5832 44.951C94.5832 44.9509 94.5833 44.9509 94.5833 44.9508C94.5834 44.9507 94.5834 44.9506 94.5834 44.9506C94.5835 44.9505 94.5835 44.9504 94.5836 44.9503C94.5836 44.9502 94.5837 44.9502 94.5837 44.9501C94.5837 44.95 94.5838 44.9499 94.5838 44.9499C94.5839 44.9498 94.5839 44.9497 94.5839 44.9496C94.584 44.9495 94.584 44.9495 94.5841 44.9494C94.5841 44.9493 94.5842 44.9492 94.5842 44.9492C94.5842 44.9491 94.5843 44.949 94.5843 44.9489C94.5844 44.9488 94.5844 44.9488 94.5845 44.9487C94.5845 44.9486 94.5845 44.9485 94.5846 44.9484C94.5846 44.9484 94.5847 44.9483 94.5847 44.9482C94.5847 44.9481 94.5848 44.9481 94.5848 44.948C94.5849 44.9479 94.5849 44.9478 94.585 44.9477C94.585 44.9477 94.585 44.9476 94.5851 44.9475C94.5851 44.9474 94.5852 44.9474 94.5852 44.9473C94.5853 44.9472 94.5853 44.9471 94.5853 44.947C94.5854 44.947 94.5854 44.9469 94.5855 44.9468C94.5855 44.9467 94.5855 44.9467 94.5856 44.9466C94.5856 44.9465 94.5857 44.9464 94.5857 44.9463C94.5858 44.9463 94.5858 44.9462 94.5858 44.9461C94.5859 44.946 94.5859 44.9459 94.586 44.9459C94.586 44.9458 94.5861 44.9457 94.5861 44.9456C94.5861 44.9456 94.5862 44.9455 94.5862 44.9454C94.5863 44.9453 94.5863 44.9452 94.5863 44.9452C94.5864 44.9451 94.5864 44.945 94.5865 44.9449C94.5865 44.9449 94.5866 44.9448 94.5866 44.9447C94.5866 44.9446 94.5867 44.9445 94.5867 44.9445C94.5868 44.9444 94.5868 44.9443 94.5869 44.9442C94.5869 44.9442 94.5869 44.9441 94.587 44.944C94.587 44.9439 94.5871 44.9438 94.5871 44.9438C94.5872 44.9437 94.5872 44.9436 94.5872 44.9435C94.5873 44.9434 94.5873 44.9434 94.5874 44.9433C94.5874 44.9432 94.5874 44.9431 94.5875 44.9431C94.5875 44.943 94.5876 44.9429 94.5876 44.9428C94.5877 44.9427 94.5877 44.9427 94.5877 44.9426C94.5878 44.9425 94.5878 44.9424 94.5879 44.9424C94.5879 44.9423 94.588 44.9422 94.588 44.9421C94.588 44.942 94.5881 44.942 94.5881 44.9419C94.5882 44.9418 94.5882 44.9417 94.5882 44.9417C94.5883 44.9416 94.5883 44.9415 94.5884 44.9414C94.5884 44.9413 94.5885 44.9413 94.5885 44.9412C94.5885 44.9411 94.5886 44.941 94.5886 44.9409C94.5887 44.9409 94.5887 44.9408 94.5888 44.9407C94.5888 44.9406 94.5888 44.9406 94.5889 44.9405C94.5889 44.9404 94.589 44.9403 94.589 44.9402C94.589 44.9402 94.5891 44.9401 94.5891 44.94C94.5892 44.9399 94.5892 44.9399 94.5893 44.9398C94.5893 44.9397 94.5893 44.9396 94.5894 44.9395C94.5894 44.9395 94.5895 44.9394 94.5895 44.9393C94.5896 44.9392 94.5896 44.9392 94.5896 44.9391C94.5897 44.939 94.5897 44.9389 94.5898 44.9388C94.5898 44.9388 94.5898 44.9387 94.5899 44.9386C94.5899 44.9385 94.59 44.9384 94.59 44.9384C94.5901 44.9383 94.5901 44.9382 94.5901 44.9381C94.5902 44.9381 94.5902 44.938 94.5903 44.9379C94.5903 44.9378 94.5904 44.9377 94.5904 44.9377C94.5904 44.9376 94.5905 44.9375 94.5905 44.9374C94.5906 44.9374 94.5906 44.9373 94.5906 44.9372C94.5907 44.9371 94.5907 44.937 94.5908 44.937C94.5908 44.9369 94.5909 44.9368 94.5909 44.9367C94.5909 44.9367 94.591 44.9366 94.591 44.9365C94.5911 44.9364 94.5911 44.9363 94.5912 44.9363C94.5912 44.9362 94.5912 44.9361 94.5913 44.936C94.5913 44.9359 94.5914 44.9359 94.5914 44.9358C94.5915 44.9357 94.5915 44.9356 94.5915 44.9356C94.5916 44.9355 94.5916 44.9354 94.5917 44.9353C94.5917 44.9352 94.5917 44.9352 94.5918 44.9351C94.5918 44.935 94.5919 44.9349 94.5919 44.9349C94.592 44.9348 94.592 44.9347 94.592 44.9346C94.5921 44.9345 94.5921 44.9345 94.5922 44.9344C94.5922 44.9343 94.5923 44.9342 94.5923 44.9342C94.5923 44.9341 94.5924 44.934 94.5924 44.9339C94.5925 44.9338 94.5925 44.9338 94.5925 44.9337C94.5926 44.9336 94.5926 44.9335 94.5927 44.9334C94.5927 44.9334 94.5928 44.9333 94.5928 44.9332C94.5928 44.9331 94.5929 44.9331 94.5929 44.933C94.593 44.9329 94.593 44.9328 94.5931 44.9327C94.5931 44.9327 94.5931 44.9326 94.5932 44.9325C94.5932 44.9324 94.5933 44.9324 94.5933 44.9323C94.5933 44.9322 94.5934 44.9321 94.5934 44.932C94.5935 44.932 94.5935 44.9319 94.5936 44.9318C94.5936 44.9317 94.5936 44.9317 94.5937 44.9316C94.5937 44.9315 94.5938 44.9314 94.5938 44.9313C94.5939 44.9313 94.5939 44.9312 94.5939 44.9311C94.594 44.931 94.594 44.9309 94.5941 44.9309C94.5941 44.9308 94.5941 44.9307 94.5942 44.9306C94.5942 44.9306 94.5943 44.9305 94.5943 44.9304C94.5944 44.9303 94.5944 44.9302 94.5944 44.9302C94.5945 44.9301 94.5945 44.93 94.5946 44.9299C94.5946 44.9299 94.5947 44.9298 94.5947 44.9297C94.5947 44.9296 94.5948 44.9295 94.5948 44.9295C94.5949 44.9294 94.5949 44.9293 94.595 44.9292C94.595 44.9292 94.595 44.9291 94.5951 44.929C94.5951 44.9289 94.5952 44.9288 94.5952 44.9288C94.5952 44.9287 94.5953 44.9286 94.5953 44.9285C94.5954 44.9284 94.5954 44.9284 94.5955 44.9283C94.5955 44.9282 94.5955 44.9281 94.5956 44.9281C94.5956 44.928 94.5957 44.9279 94.5957 44.9278C94.5958 44.9277 94.5958 44.9277 94.5958 44.9276C94.5959 44.9275 94.5959 44.9274 94.596 44.9274C94.596 44.9273 94.596 44.9272 94.5961 44.9271C94.5961 44.927 94.5962 44.927 94.5962 44.9269C94.5963 44.9268 94.5963 44.9267 94.5963 44.9267C94.5964 44.9266 94.5964 44.9265 94.5965 44.9264C94.5965 44.9263 94.5966 44.9263 94.5966 44.9262C94.5966 44.9261 94.5967 44.926 94.5967 44.9259C94.5968 44.9259 94.5968 44.9258 94.5968 44.9257C94.5969 44.9256 94.5969 44.9256 94.597 44.9255C94.597 44.9254 94.5971 44.9253 94.5971 44.9252C94.5971 44.9252 94.5972 44.9251 94.5972 44.925C94.5973 44.9249 94.5973 44.9249 94.5974 44.9248C94.5974 44.9247 94.5974 44.9246 94.5975 44.9245C94.5975 44.9245 94.5976 44.9244 94.5976 44.9243C94.5976 44.9242 94.5977 44.9242 94.5977 44.9241C94.5978 44.924 94.5978 44.9239 94.5979 44.9238C94.5979 44.9238 94.5979 44.9237 94.598 44.9236C94.598 44.9235 94.5981 44.9234 94.5981 44.9234C94.5982 44.9233 94.5982 44.9232 94.5982 44.9231C94.5983 44.9231 94.5983 44.923 94.5984 44.9229C94.5984 44.9228 94.5984 44.9227 94.5985 44.9227C94.5985 44.9226 94.5986 44.9225 94.5986 44.9224C94.5987 44.9224 94.5987 44.9223 94.5987 44.9222C94.5988 44.9221 94.5988 44.922 94.5989 44.922C94.5989 44.9219 94.599 44.9218 94.599 44.9217C94.599 44.9217 94.5991 44.9216 94.5991 44.9215C94.5992 44.9214 94.5992 44.9213 94.5993 44.9213C94.5993 44.9212 94.5993 44.9211 94.5994 44.921C94.5994 44.9209 94.5995 44.9209 94.5995 44.9208C94.5995 44.9207 94.5996 44.9206 94.5996 44.9206C94.5997 44.9205 94.5997 44.9204 94.5998 44.9203C94.5998 44.9202 94.5998 44.9202 94.5999 44.9201C94.5999 44.92 94.6 44.9199 94.6 44.9199C94.6001 44.9198 94.6001 44.9197 94.6001 44.9196C94.6002 44.9195 94.6002 44.9195 94.6003 44.9194C94.6003 44.9193 94.6003 44.9192 94.6004 44.9192C94.6004 44.9191 94.6005 44.919 94.6005 44.9189C94.6006 44.9188 94.6006 44.9188 94.6006 44.9187C94.6007 44.9186 94.6007 44.9185 94.6008 44.9184C94.6008 44.9184 94.6009 44.9183 94.6009 44.9182C94.6009 44.9181 94.601 44.9181 94.601 44.918C94.6011 44.9179 94.6011 44.9178 94.6011 44.9177C94.6012 44.9177 94.6012 44.9176 94.6013 44.9175C94.6013 44.9174 94.6014 44.9174 94.6014 44.9173C94.6014 44.9172 94.6015 44.9171 94.6015 44.917C94.6016 44.917 94.6016 44.9169 94.6017 44.9168C94.6017 44.9167 94.6017 44.9167 94.6018 44.9166C94.6018 44.9165 94.6019 44.9164 94.6019 44.9163C94.6019 44.9163 94.602 44.9162 94.602 44.9161C94.6021 44.916 94.6021 44.9159 94.6022 44.9159C94.6022 44.9158 94.6022 44.9157 94.6023 44.9156C94.6023 44.9156 94.6024 44.9155 94.6024 44.9154C94.6025 44.9153 94.6025 44.9152 94.6025 44.9152C94.6026 44.9151 94.6026 44.915 94.6027 44.9149C94.6027 44.9149 94.6028 44.9148 94.6028 44.9147C94.6028 44.9146 94.6029 44.9145 94.6029 44.9145C94.603 44.9144 94.603 44.9143 94.603 44.9142C94.6031 44.9141 94.6031 44.9141 94.6032 44.914C94.6032 44.9139 94.6033 44.9138 94.6033 44.9138C94.6033 44.9137 94.6034 44.9136 94.6034 44.9135C94.6035 44.9134 94.6035 44.9134 94.6036 44.9133C94.6036 44.9132 94.6036 44.9131 94.6037 44.9131C94.6037 44.913 94.6038 44.9129 94.6038 44.9128C94.6038 44.9127 94.6039 44.9127 94.6039 44.9126C94.604 44.9125 94.604 44.9124 94.6041 44.9124C94.6041 44.9123 94.6041 44.9122 94.6042 44.9121C94.6042 44.912 94.6043 44.912 94.6043 44.9119C94.6044 44.9118 94.6044 44.9117 94.6044 44.9116C94.6045 44.9116 94.6045 44.9115 94.6046 44.9114C94.6046 44.9113 94.6046 44.9113 94.6047 44.9112C94.6047 44.9111 94.6048 44.911 94.6048 44.9109C94.6049 44.9109 94.6049 44.9108 94.6049 44.9107C94.605 44.9106 94.605 44.9106 94.6051 44.9105C94.6051 44.9104 94.6052 44.9103 94.6052 44.9102C94.6052 44.9102 94.6053 44.9101 94.6053 44.91C94.6054 44.9099 94.6054 44.9099 94.6054 44.9098C94.6055 44.9097 94.6055 44.9096 94.6056 44.9095C94.6056 44.9095 94.6057 44.9094 94.6057 44.9093C94.6057 44.9092 94.6058 44.9091 94.6058 44.9091C94.6059 44.909 94.6059 44.9089 94.606 44.9088C94.606 44.9088 94.606 44.9087 94.6061 44.9086C94.6061 44.9085 94.6062 44.9084 94.6062 44.9084C94.6062 44.9083 94.6063 44.9082 94.6063 44.9081C94.6064 44.9081 94.6064 44.908 94.6065 44.9079C94.6065 44.9078 94.6065 44.9077 94.6066 44.9077C94.6066 44.9076 94.6067 44.9075 94.6067 44.9074C94.6068 44.9074 94.6068 44.9073 94.6068 44.9072C94.6069 44.9071 94.6069 44.907 94.607 44.907C94.607 44.9069 94.6071 44.9068 94.6071 44.9067C94.6071 44.9066 94.6072 44.9066 94.6072 44.9065C94.6073 44.9064 94.6073 44.9063 94.6073 44.9063C94.6074 44.9062 94.6074 44.9061 94.6075 44.906C94.6075 44.9059 94.6076 44.9059 94.6076 44.9058C94.6076 44.9057 94.6077 44.9056 94.6077 44.9056C94.6078 44.9055 94.6078 44.9054 94.6079 44.9053C94.6079 44.9052 94.6079 44.9052 94.608 44.9051C94.608 44.905 94.6081 44.9049 94.6081 44.9049C94.6081 44.9048 94.6082 44.9047 94.6082 44.9046C94.6083 44.9045 94.6083 44.9045 94.6084 44.9044C94.6084 44.9043 94.6084 44.9042 94.6085 44.9041C94.6085 44.9041 94.6086 44.904 94.6086 44.9039C94.6087 44.9038 94.6087 44.9038 94.6087 44.9037C94.6088 44.9036 94.6088 44.9035 94.6089 44.9034C94.6089 44.9034 94.6089 44.9033 94.609 44.9032C94.609 44.9031 94.6091 44.9031 94.6091 44.903C94.6092 44.9029 94.6092 44.9028 94.6092 44.9027C94.6093 44.9027 94.6093 44.9026 94.6094 44.9025C94.6094 44.9024 94.6095 44.9024 94.6095 44.9023C94.6095 44.9022 94.6096 44.9021 94.6096 44.902C94.6097 44.902 94.6097 44.9019 94.6097 44.9018C94.6098 44.9017 94.6098 44.9016 94.6099 44.9016C94.6099 44.9015 94.61 44.9014 94.61 44.9013C94.61 44.9013 94.6101 44.9012 94.6101 44.9011C94.6102 44.901 94.6102 44.9009 94.6103 44.9009C94.6103 44.9008 94.6103 44.9007 94.6104 44.9006C94.6104 44.9006 94.6105 44.9005 94.6105 44.9004C94.6106 44.9003 94.6106 44.9002 94.6106 44.9002C94.6107 44.9001 94.6107 44.9 94.6108 44.8999C94.6108 44.8999 94.6108 44.8998 94.6109 44.8997C94.6109 44.8996 94.611 44.8995 94.611 44.8995C94.6111 44.8994 94.6111 44.8993 94.6111 44.8992C94.6112 44.8991 94.6112 44.8991 94.6113 44.899C94.6113 44.8989 94.6114 44.8988 94.6114 44.8988C94.6114 44.8987 94.6115 44.8986 94.6115 44.8985C94.6116 44.8984 94.6116 44.8984 94.6116 44.8983C94.6117 44.8982 94.6117 44.8981 94.6118 44.8981C94.6118 44.898 94.6119 44.8979 94.6119 44.8978C94.6119 44.8977 94.612 44.8977 94.612 44.8976C94.6121 44.8975 94.6121 44.8974 94.6122 44.8974C94.6122 44.8973 94.6122 44.8972 94.6123 44.8971C94.6123 44.897 94.6124 44.897 94.6124 44.8969C94.6124 44.8968 94.6125 44.8967 94.6125 44.8966C94.6126 44.8966 94.6126 44.8965 94.6127 44.8964C94.6127 44.8963 94.6127 44.8963 94.6128 44.8962C94.6128 44.8961 94.6129 44.896 94.6129 44.8959C94.613 44.8959 94.613 44.8958 94.613 44.8957C94.6131 44.8956 94.6131 44.8956 94.6132 44.8955C94.6132 44.8954 94.6132 44.8953 94.6133 44.8952C94.6133 44.8952 94.6134 44.8951 94.6134 44.895C94.6135 44.8949 94.6135 44.8949 94.6135 44.8948C94.6136 44.8947 94.6136 44.8946 94.6137 44.8945C94.6137 44.8945 94.6138 44.8944 94.6138 44.8943C94.6138 44.8942 94.6139 44.8941 94.6139 44.8941C94.614 44.894 94.614 44.8939 94.614 44.8938C94.6141 44.8938 94.6141 44.8937 94.6142 44.8936C94.6142 44.8935 94.6143 44.8934 94.6143 44.8934C94.6143 44.8933 94.6144 44.8932 94.6144 44.8931C94.6145 44.8931 94.6145 44.893 94.6146 44.8929C94.6146 44.8928 94.6146 44.8927 94.6147 44.8927C94.6147 44.8926 94.6148 44.8925 94.6148 44.8924C94.6149 44.8924 94.6149 44.8923 94.6149 44.8922C94.615 44.8921 94.615 44.892 94.6151 44.892C94.6151 44.8919 94.6151 44.8918 94.6152 44.8917C94.6152 44.8916 94.6153 44.8916 94.6153 44.8915C94.6154 44.8914 94.6154 44.8913 94.6154 44.8913C94.6155 44.8912 94.6155 44.8911 94.6156 44.891C94.6156 44.8909 94.6157 44.8909 94.6157 44.8908C94.6157 44.8907 94.6158 44.8906 94.6158 44.8906C94.6159 44.8905 94.6159 44.8904 94.6159 44.8903C94.616 44.8902 94.616 44.8902 94.6161 44.8901C94.6161 44.89 94.6162 44.8899 94.6162 44.8899C94.6162 44.8898 94.6163 44.8897 94.6163 44.8896C94.6164 44.8895 94.6164 44.8895 94.6165 44.8894C94.6165 44.8893 94.6165 44.8892 94.6166 44.8891C94.6166 44.8891 94.6167 44.889 94.6167 44.8889C94.6167 44.8888 94.6168 44.8888 94.6168 44.8887C94.6169 44.8886 94.6169 44.8885 94.617 44.8884C94.617 44.8884 94.617 44.8883 94.6171 44.8882C94.6171 44.8881 94.6172 44.8881 94.6172 44.888C94.6173 44.8879 94.6173 44.8878 94.6173 44.8877C94.6174 44.8877 94.6174 44.8876 94.6175 44.8875C94.6175 44.8874 94.6175 44.8874 94.6176 44.8873C94.6176 44.8872 94.6177 44.8871 94.6177 44.887C94.6178 44.887 94.6178 44.8869 94.6178 44.8868C94.6179 44.8867 94.6179 44.8866 94.618 44.8866C94.618 44.8865 94.6181 44.8864 94.6181 44.8863C94.6181 44.8863 94.6182 44.8862 94.6182 44.8861C94.6183 44.886 94.6183 44.8859 94.6184 44.8859C94.6184 44.8858 94.6184 44.8857 94.6185 44.8856C94.6185 44.8856 94.6186 44.8855 94.6186 44.8854C94.6186 44.8853 94.6187 44.8852 94.6187 44.8852C94.6188 44.8851 94.6188 44.885 94.6189 44.8849C94.6189 44.8849 94.6189 44.8848 94.619 44.8847C94.619 44.8846 94.6191 44.8845 94.6191 44.8845C94.6192 44.8844 94.6192 44.8843 94.6192 44.8842C94.6193 44.8841 94.6193 44.8841 94.6194 44.884C94.6194 44.8839 94.6194 44.8838 94.6195 44.8838C94.6195 44.8837 94.6196 44.8836 94.6196 44.8835C94.6197 44.8834 94.6197 44.8834 94.6197 44.8833C94.6198 44.8832 94.6198 44.8831 94.6199 44.8831C94.6199 44.883 94.62 44.8829 94.62 44.8828C94.62 44.8827 94.6201 44.8827 94.6201 44.8826C94.6202 44.8825 94.6202 44.8824 94.6202 44.8824C94.6203 44.8823 94.6203 44.8822 94.6204 44.8821C94.6204 44.882 94.6205 44.882 94.6205 44.8819C94.6205 44.8818 94.6206 44.8817 94.6206 44.8816C94.6207 44.8816 94.6207 44.8815 94.6208 44.8814C94.6208 44.8813 94.6208 44.8813 94.6209 44.8812C94.6209 44.8811 94.621 44.881 94.621 44.8809C94.621 44.8809 94.6211 44.8808 94.6211 44.8807C94.6212 44.8806 94.6212 44.8806 94.6213 44.8805C94.6213 44.8804 94.6213 44.8803 94.6214 44.8802C94.6214 44.8802 94.6215 44.8801 94.6215 44.88C94.6216 44.8799 94.6216 44.8799 94.6216 44.8798C94.6217 44.8797 94.6217 44.8796 94.6218 44.8795C94.6218 44.8795 94.6218 44.8794 94.6219 44.8793C94.6219 44.8792 94.622 44.8791 94.622 44.8791C94.6221 44.879 94.6221 44.8789 94.6221 44.8788C94.6222 44.8788 94.6222 44.8787 94.6223 44.8786C94.6223 44.8785 94.6224 44.8784 94.6224 44.8784C94.6224 44.8783 94.6225 44.8782 94.6225 44.8781C94.6226 44.8781 94.6226 44.878 94.6227 44.8779C94.6227 44.8778 94.6227 44.8777 94.6228 44.8777C94.6228 44.8776 94.6229 44.8775 94.6229 44.8774C94.6229 44.8774 94.623 44.8773 94.623 44.8772C94.6231 44.8771 94.6231 44.877 94.6232 44.877C94.6232 44.8769 94.6232 44.8768 94.6233 44.8767C94.6233 44.8766 94.6234 44.8766 94.6234 44.8765C94.6235 44.8764 94.6235 44.8763 94.6235 44.8763C94.6236 44.8762 94.6236 44.8761 94.6237 44.876C94.6237 44.8759 94.6237 44.8759 94.6238 44.8758C94.6238 44.8757 94.6239 44.8756 94.6239 44.8756C94.624 44.8755 94.624 44.8754 94.624 44.8753C94.6241 44.8752 94.6241 44.8752 94.6242 44.8751C94.6242 44.875 94.6243 44.8749 94.6243 44.8749C94.6243 44.8748 94.6244 44.8747 94.6244 44.8746C94.6245 44.8745 94.6245 44.8745 94.6245 44.8744C94.6246 44.8743 94.6246 44.8742 94.6247 44.8741C94.6247 44.8741 94.6248 44.874 94.6248 44.8739C94.6248 44.8738 94.6249 44.8738 94.6249 44.8737C94.625 44.8736 94.625 44.8735 94.6251 44.8734C94.6251 44.8734 94.6251 44.8733 94.6252 44.8732C94.6252 44.8731 94.6253 44.8731 94.6253 44.873C94.6253 44.8729 94.6254 44.8728 94.6254 44.8727C94.6255 44.8727 94.6255 44.8726 94.6256 44.8725C94.6256 44.8724 94.6256 44.8724 94.6257 44.8723C94.6257 44.8722 94.6258 44.8721 94.6258 44.872C94.6259 44.872 94.6259 44.8719 94.6259 44.8718C94.626 44.8717 94.626 44.8716 94.6261 44.8716C94.6261 44.8715 94.6262 44.8714 94.6262 44.8713C94.6262 44.8713 94.6263 44.8712 94.6263 44.8711C94.6264 44.871 94.6264 44.8709 94.6264 44.8709C94.6265 44.8708 94.6265 44.8707 94.6266 44.8706C94.6266 44.8706 94.6267 44.8705 94.6267 44.8704C94.6267 44.8703 94.6268 44.8702 94.6268 44.8702C94.6269 44.8701 94.6269 44.87 94.627 44.8699C94.627 44.8699 94.627 44.8698 94.6271 44.8697C94.6271 44.8696 94.6272 44.8695 94.6272 44.8695C94.6272 44.8694 94.6273 44.8693 94.6273 44.8692C94.6274 44.8691 94.6274 44.8691 94.6275 44.869C94.6275 44.8689 94.6275 44.8688 94.6276 44.8688C94.6276 44.8687 94.6277 44.8686 94.6277 44.8685C94.6278 44.8684 94.6278 44.8684 94.6278 44.8683C94.6279 44.8682 94.6279 44.8681 94.628 44.8681C94.628 44.868 94.628 44.8679 94.6281 44.8678C94.6281 44.8677 94.6282 44.8677 94.6282 44.8676C94.6283 44.8675 94.6283 44.8674 94.6283 44.8674C94.6284 44.8673 94.6284 44.8672 94.6285 44.8671C94.6285 44.867 94.6286 44.867 94.6286 44.8669C94.6286 44.8668 94.6287 44.8667 94.6287 44.8666C94.6288 44.8666 94.6288 44.8665 94.6288 44.8664C94.6289 44.8663 94.6289 44.8663 94.629 44.8662C94.629 44.8661 94.6291 44.866 94.6291 44.8659C94.6291 44.8659 94.6292 44.8658 94.6292 44.8657C94.6293 44.8656 94.6293 44.8656 94.6294 44.8655C94.6294 44.8654 94.6294 44.8653 94.6295 44.8652C94.6295 44.8652 94.6296 44.8651 94.6296 44.865C94.6296 44.8649 94.6297 44.8649 94.6297 44.8648C94.6298 44.8647 94.6298 44.8646 94.6299 44.8645C94.6299 44.8645 94.6299 44.8644 94.63 44.8643C94.63 44.8642 94.6301 44.8641 94.6301 44.8641C94.6302 44.864 94.6302 44.8639 94.6302 44.8638C94.6303 44.8638 94.6303 44.8637 94.6304 44.8636C94.6304 44.8635 94.6305 44.8634 94.6305 44.8634C94.6305 44.8633 94.6306 44.8632 94.6306 44.8631C94.6307 44.8631 94.6307 44.863 94.6307 44.8629C94.6308 44.8628 94.6308 44.8627 94.6309 44.8627C94.6309 44.8626 94.631 44.8625 94.631 44.8624C94.631 44.8624 94.6311 44.8623 94.6311 44.8622C94.6312 44.8621 94.6312 44.862 94.6313 44.862C94.6313 44.8619 94.6313 44.8618 94.6314 44.8617C94.6314 44.8616 94.6315 44.8616 94.6315 44.8615C94.6315 44.8614 94.6316 44.8613 94.6316 44.8613C94.6317 44.8612 94.6317 44.8611 94.6318 44.861C94.6318 44.8609 94.6318 44.8609 94.6319 44.8608C94.6319 44.8607 94.632 44.8606 94.632 44.8606C94.6321 44.8605 94.6321 44.8604 94.6321 44.8603C94.6322 44.8602 94.6322 44.8602 94.6323 44.8601C94.6323 44.86 94.6323 44.8599 94.6324 44.8599C94.6324 44.8598 94.6325 44.8597 94.6325 44.8596C94.6326 44.8595 94.6326 44.8595 94.6326 44.8594C94.6327 44.8593 94.6327 44.8592 94.6328 44.8591C94.6328 44.8591 94.6329 44.859 94.6329 44.8589C94.6329 44.8588 94.633 44.8588 94.633 44.8587C94.6331 44.8586 94.6331 44.8585 94.6331 44.8584C94.6332 44.8584 94.6332 44.8583 94.6333 44.8582C94.6333 44.8581 94.6334 44.8581 94.6334 44.858C94.6334 44.8579 94.6335 44.8578 94.6335 44.8577C94.6336 44.8577 94.6336 44.8576 94.6337 44.8575C94.6337 44.8574 94.6337 44.8574 94.6338 44.8573C94.6338 44.8572 94.6339 44.8571 94.6339 44.857C94.6339 44.857 94.634 44.8569 94.634 44.8568C94.6341 44.8567 94.6341 44.8566 94.6342 44.8566C94.6342 44.8565 94.6342 44.8564 94.6343 44.8563C94.6343 44.8563 94.6344 44.8562 94.6344 44.8561C94.6345 44.856 94.6345 44.8559 94.6345 44.8559C94.6346 44.8558 94.6346 44.8557 94.6347 44.8556C94.6347 44.8556 94.6348 44.8555 94.6348 44.8554C94.6348 44.8553 94.6349 44.8552 94.6349 44.8552C94.635 44.8551 94.635 44.855 94.635 44.8549C94.6351 44.8549 94.6351 44.8548 94.6352 44.8547C94.6352 44.8546 94.6353 44.8545 94.6353 44.8545C94.6353 44.8544 94.6354 44.8543 94.6354 44.8542C94.6355 44.8541 94.6355 44.8541 94.6356 44.854C94.6356 44.8539 94.6356 44.8538 94.6357 44.8538C94.6357 44.8537 94.6358 44.8536 94.6358 44.8535C94.6358 44.8534 94.6359 44.8534 94.6359 44.8533C94.636 44.8532 94.636 44.8531 94.6361 44.8531C94.6361 44.853 94.6361 44.8529 94.6362 44.8528C94.6362 44.8527 94.6363 44.8527 94.6363 44.8526C94.6364 44.8525 94.6364 44.8524 94.6364 44.8524C94.6365 44.8523 94.6365 44.8522 94.6366 44.8521C94.6366 44.852 94.6366 44.852 94.6367 44.8519C94.6367 44.8518 94.6368 44.8517 94.6368 44.8516C94.6369 44.8516 94.6369 44.8515 94.6369 44.8514C94.637 44.8513 94.637 44.8513 94.6371 44.8512C94.6371 44.8511 94.6372 44.851 94.6372 44.8509C94.6372 44.8509 94.6373 44.8508 94.6373 44.8507C94.6374 44.8506 94.6374 44.8506 94.6374 44.8505C94.6375 44.8504 94.6375 44.8503 94.6376 44.8502C94.6376 44.8502 94.6377 44.8501 94.6377 44.85C94.6377 44.8499 94.6378 44.8499 94.6378 44.8498C94.6379 44.8497 94.6379 44.8496 94.638 44.8495C94.638 44.8495 94.638 44.8494 94.6381 44.8493C94.6381 44.8492 94.6382 44.8491 94.6382 44.8491C94.6383 44.849 94.6383 44.8489 94.6383 44.8488C94.6384 44.8488 94.6384 44.8487 94.6385 44.8486C94.6385 44.8485 94.6385 44.8484 94.6386 44.8484C94.6386 44.8483 94.6387 44.8482 94.6387 44.8481C94.6388 44.8481 94.6388 44.848 94.6388 44.8479C94.6389 44.8478 94.6389 44.8477 94.639 44.8477C94.639 44.8476 94.6391 44.8475 94.6391 44.8474C94.6391 44.8474 94.6392 44.8473 94.6392 44.8472C94.6393 44.8471 94.6393 44.847 94.6393 44.847C94.6394 44.8469 94.6394 44.8468 94.6395 44.8467C94.6395 44.8466 94.6396 44.8466 94.6396 44.8465C94.6396 44.8464 94.6397 44.8463 94.6397 44.8463C94.6398 44.8462 94.6398 44.8461 94.6399 44.846C94.6399 44.8459 94.6399 44.8459 94.64 44.8458C94.64 44.8457 94.6401 44.8456 94.6401 44.8456C94.6401 44.8455 94.6402 44.8454 94.6402 44.8453C94.6403 44.8452 94.6403 44.8452 94.6404 44.8451C94.6404 44.845 94.6404 44.8449 94.6405 44.8449C94.6405 44.8448 94.6406 44.8447 94.6406 44.8446C94.6407 44.8445 94.6407 44.8445 94.6407 44.8444C94.6408 44.8443 94.6408 44.8442 94.6409 44.8441C94.6409 44.8441 94.6409 44.844 94.641 44.8439C94.641 44.8438 94.6411 44.8438 94.6411 44.8437C94.6412 44.8436 94.6412 44.8435 94.6412 44.8434C94.6413 44.8434 94.6413 44.8433 94.6414 44.8432C94.6414 44.8431 94.6415 44.8431 94.6415 44.843C94.6415 44.8429 94.6416 44.8428 94.6416 44.8427C94.6417 44.8427 94.6417 44.8426 94.6417 44.8425C94.6418 44.8424 94.6418 44.8424 94.6419 44.8423C94.6419 44.8422 94.642 44.8421 94.642 44.842C94.642 44.842 94.6421 44.8419 94.6421 44.8418C94.6422 44.8417 94.6422 44.8416 94.6423 44.8416C94.6423 44.8415 94.6423 44.8414 94.6424 44.8413C94.6424 44.8413 94.6425 44.8412 94.6425 44.8411C94.6426 44.841 94.6426 44.8409 94.6426 44.8409C94.6427 44.8408 94.6427 44.8407 94.6428 44.8406C94.6428 44.8406 94.6428 44.8405 94.6429 44.8404C94.6429 44.8403 94.643 44.8402 94.643 44.8402C94.6431 44.8401 94.6431 44.84 94.6431 44.8399C94.6432 44.8399 94.6432 44.8398 94.6433 44.8397C94.6433 44.8396 94.6434 44.8395 94.6434 44.8395C94.6434 44.8394 94.6435 44.8393 94.6435 44.8392C94.6436 44.8391 94.6436 44.8391 94.6436 44.839C94.6437 44.8389 94.6437 44.8388 94.6438 44.8388C94.6438 44.8387 94.6439 44.8386 94.6439 44.8385C94.6439 44.8384 94.644 44.8384 94.644 44.8383C94.6441 44.8382 94.6441 44.8381 94.6442 44.8381C94.6442 44.838 94.6442 44.8379 94.6443 44.8378C94.6443 44.8377 94.6444 44.8377 94.6444 44.8376C94.6444 44.8375 94.6445 44.8374 94.6445 44.8374C94.6446 44.8373 94.6446 44.8372 94.6447 44.8371C94.6447 44.837 94.6447 44.837 94.6448 44.8369C94.6448 44.8368 94.6449 44.8367 94.6449 44.8366C94.645 44.8366 94.645 44.8365 94.645 44.8364C94.6451 44.8363 94.6451 44.8363 94.6452 44.8362C94.6452 44.8361 94.6452 44.836 94.6453 44.8359C94.6453 44.8359 94.6454 44.8358 94.6454 44.8357C94.6455 44.8356 94.6455 44.8356 94.6455 44.8355C94.6456 44.8354 94.6456 44.8353 94.6457 44.8352C94.6457 44.8352 94.6458 44.8351 94.6458 44.835C94.6458 44.8349 94.6459 44.8349 94.6459 44.8348C94.646 44.8347 94.646 44.8346 94.6461 44.8345C94.6461 44.8345 94.6461 44.8344 94.6462 44.8343C94.6462 44.8342 94.6463 44.8341 94.6463 44.8341C94.6463 44.834 94.6464 44.8339 94.6464 44.8338C94.6465 44.8338 94.6465 44.8337 94.6466 44.8336C94.6466 44.8335 94.6466 44.8334 94.6467 44.8334L92.8866 43.8835C92.8866 43.8836 92.8865 43.8837 92.8865 43.8838C92.8864 43.8839 92.8864 43.8839 92.8864 43.884C92.8863 43.8841 92.8863 43.8842 92.8862 43.8843C92.8862 43.8843 92.8861 43.8844 92.8861 43.8845C92.8861 43.8846 92.886 43.8846 92.886 43.8847C92.8859 43.8848 92.8859 43.8849 92.8859 43.885C92.8858 43.885 92.8858 43.8851 92.8857 43.8852C92.8857 43.8853 92.8856 43.8853 92.8856 43.8854C92.8856 43.8855 92.8855 43.8856 92.8855 43.8857C92.8854 43.8857 92.8854 43.8858 92.8853 43.8859C92.8853 43.886 92.8853 43.886 92.8852 43.8861C92.8852 43.8862 92.8851 43.8863 92.8851 43.8864C92.8851 43.8864 92.885 43.8865 92.885 43.8866C92.8849 43.8867 92.8849 43.8868 92.8848 43.8868C92.8848 43.8869 92.8848 43.887 92.8847 43.8871C92.8847 43.8871 92.8846 43.8872 92.8846 43.8873C92.8845 43.8874 92.8845 43.8875 92.8845 43.8875C92.8844 43.8876 92.8844 43.8877 92.8843 43.8878C92.8843 43.8878 92.8843 43.8879 92.8842 43.888C92.8842 43.8881 92.8841 43.8882 92.8841 43.8882C92.884 43.8883 92.884 43.8884 92.884 43.8885C92.8839 43.8885 92.8839 43.8886 92.8838 43.8887C92.8838 43.8888 92.8837 43.8889 92.8837 43.8889C92.8837 43.889 92.8836 43.8891 92.8836 43.8892C92.8835 43.8893 92.8835 43.8893 92.8835 43.8894C92.8834 43.8895 92.8834 43.8896 92.8833 43.8896C92.8833 43.8897 92.8832 43.8898 92.8832 43.8899C92.8832 43.89 92.8831 43.89 92.8831 43.8901C92.883 43.8902 92.883 43.8903 92.8829 43.8903C92.8829 43.8904 92.8829 43.8905 92.8828 43.8906C92.8828 43.8907 92.8827 43.8907 92.8827 43.8908C92.8826 43.8909 92.8826 43.891 92.8826 43.891C92.8825 43.8911 92.8825 43.8912 92.8824 43.8913C92.8824 43.8914 92.8824 43.8914 92.8823 43.8915C92.8823 43.8916 92.8822 43.8917 92.8822 43.8918C92.8821 43.8918 92.8821 43.8919 92.8821 43.892C92.882 43.8921 92.882 43.8921 92.8819 43.8922C92.8819 43.8923 92.8818 43.8924 92.8818 43.8925C92.8818 43.8925 92.8817 43.8926 92.8817 43.8927C92.8816 43.8928 92.8816 43.8928 92.8816 43.8929C92.8815 43.893 92.8815 43.8931 92.8814 43.8932C92.8814 43.8932 92.8813 43.8933 92.8813 43.8934C92.8813 43.8935 92.8812 43.8935 92.8812 43.8936C92.8811 43.8937 92.8811 43.8938 92.881 43.8939C92.881 43.8939 92.881 43.894 92.8809 43.8941C92.8809 43.8942 92.8808 43.8943 92.8808 43.8943C92.8808 43.8944 92.8807 43.8945 92.8807 43.8946C92.8806 43.8946 92.8806 43.8947 92.8805 43.8948C92.8805 43.8949 92.8805 43.895 92.8804 43.895C92.8804 43.8951 92.8803 43.8952 92.8803 43.8953C92.8802 43.8953 92.8802 43.8954 92.8802 43.8955C92.8801 43.8956 92.8801 43.8957 92.88 43.8957C92.88 43.8958 92.88 43.8959 92.8799 43.896C92.8799 43.896 92.8798 43.8961 92.8798 43.8962C92.8797 43.8963 92.8797 43.8964 92.8797 43.8964C92.8796 43.8965 92.8796 43.8966 92.8795 43.8967C92.8795 43.8968 92.8794 43.8968 92.8794 43.8969C92.8794 43.897 92.8793 43.8971 92.8793 43.8971C92.8792 43.8972 92.8792 43.8973 92.8791 43.8974C92.8791 43.8975 92.8791 43.8975 92.879 43.8976C92.879 43.8977 92.8789 43.8978 92.8789 43.8978C92.8789 43.8979 92.8788 43.898 92.8788 43.8981C92.8787 43.8982 92.8787 43.8982 92.8786 43.8983C92.8786 43.8984 92.8786 43.8985 92.8785 43.8985C92.8785 43.8986 92.8784 43.8987 92.8784 43.8988C92.8783 43.8989 92.8783 43.8989 92.8783 43.899C92.8782 43.8991 92.8782 43.8992 92.8781 43.8993C92.8781 43.8993 92.8781 43.8994 92.878 43.8995C92.878 43.8996 92.8779 43.8996 92.8779 43.8997C92.8778 43.8998 92.8778 43.8999 92.8778 43.9C92.8777 43.9 92.8777 43.9001 92.8776 43.9002C92.8776 43.9003 92.8775 43.9003 92.8775 43.9004C92.8775 43.9005 92.8774 43.9006 92.8774 43.9007C92.8773 43.9007 92.8773 43.9008 92.8773 43.9009C92.8772 43.901 92.8772 43.901 92.8771 43.9011C92.8771 43.9012 92.877 43.9013 92.877 43.9014C92.877 43.9014 92.8769 43.9015 92.8769 43.9016C92.8768 43.9017 92.8768 43.9018 92.8767 43.9018C92.8767 43.9019 92.8767 43.902 92.8766 43.9021C92.8766 43.9021 92.8765 43.9022 92.8765 43.9023C92.8765 43.9024 92.8764 43.9025 92.8764 43.9025C92.8763 43.9026 92.8763 43.9027 92.8762 43.9028C92.8762 43.9028 92.8762 43.9029 92.8761 43.903C92.8761 43.9031 92.876 43.9032 92.876 43.9032C92.8759 43.9033 92.8759 43.9034 92.8759 43.9035C92.8758 43.9035 92.8758 43.9036 92.8757 43.9037C92.8757 43.9038 92.8757 43.9039 92.8756 43.9039C92.8756 43.904 92.8755 43.9041 92.8755 43.9042C92.8754 43.9043 92.8754 43.9043 92.8754 43.9044C92.8753 43.9045 92.8753 43.9046 92.8752 43.9046C92.8752 43.9047 92.8751 43.9048 92.8751 43.9049C92.8751 43.905 92.875 43.905 92.875 43.9051C92.8749 43.9052 92.8749 43.9053 92.8748 43.9053C92.8748 43.9054 92.8748 43.9055 92.8747 43.9056C92.8747 43.9057 92.8746 43.9057 92.8746 43.9058C92.8746 43.9059 92.8745 43.906 92.8745 43.906C92.8744 43.9061 92.8744 43.9062 92.8743 43.9063C92.8743 43.9064 92.8743 43.9064 92.8742 43.9065C92.8742 43.9066 92.8741 43.9067 92.8741 43.9068C92.874 43.9068 92.874 43.9069 92.874 43.907C92.8739 43.9071 92.8739 43.9071 92.8738 43.9072C92.8738 43.9073 92.8738 43.9074 92.8737 43.9075C92.8737 43.9075 92.8736 43.9076 92.8736 43.9077C92.8735 43.9078 92.8735 43.9078 92.8735 43.9079C92.8734 43.908 92.8734 43.9081 92.8733 43.9082C92.8733 43.9082 92.8732 43.9083 92.8732 43.9084C92.8732 43.9085 92.8731 43.9085 92.8731 43.9086C92.873 43.9087 92.873 43.9088 92.873 43.9089C92.8729 43.9089 92.8729 43.909 92.8728 43.9091C92.8728 43.9092 92.8727 43.9093 92.8727 43.9093C92.8727 43.9094 92.8726 43.9095 92.8726 43.9096C92.8725 43.9096 92.8725 43.9097 92.8724 43.9098C92.8724 43.9099 92.8724 43.91 92.8723 43.91C92.8723 43.9101 92.8722 43.9102 92.8722 43.9103C92.8722 43.9103 92.8721 43.9104 92.8721 43.9105C92.872 43.9106 92.872 43.9107 92.8719 43.9107C92.8719 43.9108 92.8719 43.9109 92.8718 43.911C92.8718 43.911 92.8717 43.9111 92.8717 43.9112C92.8716 43.9113 92.8716 43.9114 92.8716 43.9114C92.8715 43.9115 92.8715 43.9116 92.8714 43.9117C92.8714 43.9118 92.8713 43.9118 92.8713 43.9119C92.8713 43.912 92.8712 43.9121 92.8712 43.9121C92.8711 43.9122 92.8711 43.9123 92.8711 43.9124C92.871 43.9125 92.871 43.9125 92.8709 43.9126C92.8709 43.9127 92.8708 43.9128 92.8708 43.9128C92.8708 43.9129 92.8707 43.913 92.8707 43.9131C92.8706 43.9132 92.8706 43.9132 92.8705 43.9133C92.8705 43.9134 92.8705 43.9135 92.8704 43.9135C92.8704 43.9136 92.8703 43.9137 92.8703 43.9138C92.8703 43.9139 92.8702 43.9139 92.8702 43.914C92.8701 43.9141 92.8701 43.9142 92.87 43.9143C92.87 43.9143 92.87 43.9144 92.8699 43.9145C92.8699 43.9146 92.8698 43.9146 92.8698 43.9147C92.8697 43.9148 92.8697 43.9149 92.8697 43.915C92.8696 43.915 92.8696 43.9151 92.8695 43.9152C92.8695 43.9153 92.8695 43.9153 92.8694 43.9154C92.8694 43.9155 92.8693 43.9156 92.8693 43.9157C92.8692 43.9157 92.8692 43.9158 92.8692 43.9159C92.8691 43.916 92.8691 43.916 92.869 43.9161C92.869 43.9162 92.8689 43.9163 92.8689 43.9164C92.8689 43.9164 92.8688 43.9165 92.8688 43.9166C92.8687 43.9167 92.8687 43.9168 92.8687 43.9168C92.8686 43.9169 92.8686 43.917 92.8685 43.9171C92.8685 43.9171 92.8684 43.9172 92.8684 43.9173C92.8684 43.9174 92.8683 43.9175 92.8683 43.9175C92.8682 43.9176 92.8682 43.9177 92.8681 43.9178C92.8681 43.9178 92.8681 43.9179 92.868 43.918C92.868 43.9181 92.8679 43.9182 92.8679 43.9182C92.8679 43.9183 92.8678 43.9184 92.8678 43.9185C92.8677 43.9185 92.8677 43.9186 92.8676 43.9187C92.8676 43.9188 92.8676 43.9189 92.8675 43.9189C92.8675 43.919 92.8674 43.9191 92.8674 43.9192C92.8673 43.9193 92.8673 43.9193 92.8673 43.9194C92.8672 43.9195 92.8672 43.9196 92.8671 43.9196C92.8671 43.9197 92.867 43.9198 92.867 43.9199C92.867 43.92 92.8669 43.92 92.8669 43.9201C92.8668 43.9202 92.8668 43.9203 92.8668 43.9203C92.8667 43.9204 92.8667 43.9205 92.8666 43.9206C92.8666 43.9207 92.8665 43.9207 92.8665 43.9208C92.8665 43.9209 92.8664 43.921 92.8664 43.921C92.8663 43.9211 92.8663 43.9212 92.8662 43.9213C92.8662 43.9214 92.8662 43.9214 92.8661 43.9215C92.8661 43.9216 92.866 43.9217 92.866 43.9218C92.866 43.9218 92.8659 43.9219 92.8659 43.922C92.8658 43.9221 92.8658 43.9221 92.8657 43.9222C92.8657 43.9223 92.8657 43.9224 92.8656 43.9225C92.8656 43.9225 92.8655 43.9226 92.8655 43.9227C92.8654 43.9228 92.8654 43.9228 92.8654 43.9229C92.8653 43.923 92.8653 43.9231 92.8652 43.9232C92.8652 43.9232 92.8652 43.9233 92.8651 43.9234C92.8651 43.9235 92.865 43.9236 92.865 43.9236C92.8649 43.9237 92.8649 43.9238 92.8649 43.9239C92.8648 43.9239 92.8648 43.924 92.8647 43.9241C92.8647 43.9242 92.8646 43.9243 92.8646 43.9243C92.8646 43.9244 92.8645 43.9245 92.8645 43.9246C92.8644 43.9246 92.8644 43.9247 92.8644 43.9248C92.8643 43.9249 92.8643 43.925 92.8642 43.925C92.8642 43.9251 92.8641 43.9252 92.8641 43.9253C92.8641 43.9253 92.864 43.9254 92.864 43.9255C92.8639 43.9256 92.8639 43.9257 92.8638 43.9257C92.8638 43.9258 92.8638 43.9259 92.8637 43.926C92.8637 43.9261 92.8636 43.9261 92.8636 43.9262C92.8635 43.9263 92.8635 43.9264 92.8635 43.9264C92.8634 43.9265 92.8634 43.9266 92.8633 43.9267C92.8633 43.9268 92.8633 43.9268 92.8632 43.9269C92.8632 43.927 92.8631 43.9271 92.8631 43.9271C92.863 43.9272 92.863 43.9273 92.863 43.9274C92.8629 43.9275 92.8629 43.9275 92.8628 43.9276C92.8628 43.9277 92.8627 43.9278 92.8627 43.9278C92.8627 43.9279 92.8626 43.928 92.8626 43.9281C92.8625 43.9282 92.8625 43.9282 92.8625 43.9283C92.8624 43.9284 92.8624 43.9285 92.8623 43.9285C92.8623 43.9286 92.8622 43.9287 92.8622 43.9288C92.8622 43.9289 92.8621 43.9289 92.8621 43.929C92.862 43.9291 92.862 43.9292 92.8619 43.9293C92.8619 43.9293 92.8619 43.9294 92.8618 43.9295C92.8618 43.9296 92.8617 43.9296 92.8617 43.9297C92.8617 43.9298 92.8616 43.9299 92.8616 43.93C92.8615 43.93 92.8615 43.9301 92.8614 43.9302C92.8614 43.9303 92.8614 43.9303 92.8613 43.9304C92.8613 43.9305 92.8612 43.9306 92.8612 43.9307C92.8611 43.9307 92.8611 43.9308 92.8611 43.9309C92.861 43.931 92.861 43.931 92.8609 43.9311C92.8609 43.9312 92.8609 43.9313 92.8608 43.9314C92.8608 43.9314 92.8607 43.9315 92.8607 43.9316C92.8606 43.9317 92.8606 43.9318 92.8606 43.9318C92.8605 43.9319 92.8605 43.932 92.8604 43.9321C92.8604 43.9321 92.8603 43.9322 92.8603 43.9323C92.8603 43.9324 92.8602 43.9325 92.8602 43.9325C92.8601 43.9326 92.8601 43.9327 92.8601 43.9328C92.86 43.9328 92.86 43.9329 92.8599 43.933C92.8599 43.9331 92.8598 43.9332 92.8598 43.9332C92.8598 43.9333 92.8597 43.9334 92.8597 43.9335C92.8596 43.9336 92.8596 43.9336 92.8595 43.9337C92.8595 43.9338 92.8595 43.9339 92.8594 43.9339C92.8594 43.934 92.8593 43.9341 92.8593 43.9342C92.8592 43.9343 92.8592 43.9343 92.8592 43.9344C92.8591 43.9345 92.8591 43.9346 92.859 43.9346C92.859 43.9347 92.859 43.9348 92.8589 43.9349C92.8589 43.935 92.8588 43.935 92.8588 43.9351C92.8587 43.9352 92.8587 43.9353 92.8587 43.9353C92.8586 43.9354 92.8586 43.9355 92.8585 43.9356C92.8585 43.9357 92.8584 43.9357 92.8584 43.9358C92.8584 43.9359 92.8583 43.936 92.8583 43.9361C92.8582 43.9361 92.8582 43.9362 92.8582 43.9363C92.8581 43.9364 92.8581 43.9364 92.858 43.9365C92.858 43.9366 92.8579 43.9367 92.8579 43.9368C92.8579 43.9368 92.8578 43.9369 92.8578 43.937C92.8577 43.9371 92.8577 43.9371 92.8576 43.9372C92.8576 43.9373 92.8576 43.9374 92.8575 43.9375C92.8575 43.9375 92.8574 43.9376 92.8574 43.9377C92.8574 43.9378 92.8573 43.9378 92.8573 43.9379C92.8572 43.938 92.8572 43.9381 92.8571 43.9382C92.8571 43.9382 92.8571 43.9383 92.857 43.9384C92.857 43.9385 92.8569 43.9386 92.8569 43.9386C92.8568 43.9387 92.8568 43.9388 92.8568 43.9389C92.8567 43.9389 92.8567 43.939 92.8566 43.9391C92.8566 43.9392 92.8566 43.9393 92.8565 43.9393C92.8565 43.9394 92.8564 43.9395 92.8564 43.9396C92.8563 43.9396 92.8563 43.9397 92.8563 43.9398C92.8562 43.9399 92.8562 43.94 92.8561 43.94C92.8561 43.9401 92.856 43.9402 92.856 43.9403C92.856 43.9403 92.8559 43.9404 92.8559 43.9405C92.8558 43.9406 92.8558 43.9407 92.8558 43.9407C92.8557 43.9408 92.8557 43.9409 92.8556 43.941C92.8556 43.9411 92.8555 43.9411 92.8555 43.9412C92.8555 43.9413 92.8554 43.9414 92.8554 43.9414C92.8553 43.9415 92.8553 43.9416 92.8552 43.9417C92.8552 43.9418 92.8552 43.9418 92.8551 43.9419C92.8551 43.942 92.855 43.9421 92.855 43.9421C92.8549 43.9422 92.8549 43.9423 92.8549 43.9424C92.8548 43.9425 92.8548 43.9425 92.8547 43.9426C92.8547 43.9427 92.8547 43.9428 92.8546 43.9428C92.8546 43.9429 92.8545 43.943 92.8545 43.9431C92.8544 43.9432 92.8544 43.9432 92.8544 43.9433C92.8543 43.9434 92.8543 43.9435 92.8542 43.9436C92.8542 43.9436 92.8541 43.9437 92.8541 43.9438C92.8541 43.9439 92.854 43.9439 92.854 43.944C92.8539 43.9441 92.8539 43.9442 92.8539 43.9443C92.8538 43.9443 92.8538 43.9444 92.8537 43.9445C92.8537 43.9446 92.8536 43.9446 92.8536 43.9447C92.8536 43.9448 92.8535 43.9449 92.8535 43.945C92.8534 43.945 92.8534 43.9451 92.8533 43.9452C92.8533 43.9453 92.8533 43.9453 92.8532 43.9454C92.8532 43.9455 92.8531 43.9456 92.8531 43.9457C92.8531 43.9457 92.853 43.9458 92.853 43.9459C92.8529 43.946 92.8529 43.9461 92.8528 43.9461C92.8528 43.9462 92.8528 43.9463 92.8527 43.9464C92.8527 43.9464 92.8526 43.9465 92.8526 43.9466C92.8525 43.9467 92.8525 43.9468 92.8525 43.9468C92.8524 43.9469 92.8524 43.947 92.8523 43.9471C92.8523 43.9471 92.8523 43.9472 92.8522 43.9473C92.8522 43.9474 92.8521 43.9475 92.8521 43.9475C92.852 43.9476 92.852 43.9477 92.852 43.9478C92.8519 43.9478 92.8519 43.9479 92.8518 43.948C92.8518 43.9481 92.8517 43.9482 92.8517 43.9482C92.8517 43.9483 92.8516 43.9484 92.8516 43.9485C92.8515 43.9486 92.8515 43.9486 92.8514 43.9487C92.8514 43.9488 92.8514 43.9489 92.8513 43.9489C92.8513 43.949 92.8512 43.9491 92.8512 43.9492C92.8512 43.9493 92.8511 43.9493 92.8511 43.9494C92.851 43.9495 92.851 43.9496 92.8509 43.9496C92.8509 43.9497 92.8509 43.9498 92.8508 43.9499C92.8508 43.95 92.8507 43.95 92.8507 43.9501C92.8506 43.9502 92.8506 43.9503 92.8506 43.9503C92.8505 43.9504 92.8505 43.9505 92.8504 43.9506C92.8504 43.9507 92.8504 43.9507 92.8503 43.9508C92.8503 43.9509 92.8502 43.951 92.8502 43.9511C92.8501 43.9511 92.8501 43.9512 92.8501 43.9513C92.85 43.9514 92.85 43.9514 92.8499 43.9515C92.8499 43.9516 92.8498 43.9517 92.8498 43.9518C92.8498 43.9518 92.8497 43.9519 92.8497 43.952C92.8496 43.9521 92.8496 43.9521 92.8496 43.9522C92.8495 43.9523 92.8495 43.9524 92.8494 43.9525C92.8494 43.9525 92.8493 43.9526 92.8493 43.9527C92.8493 43.9528 92.8492 43.9528 92.8492 43.9529C92.8491 43.953 92.8491 43.9531 92.849 43.9532C92.849 43.9532 92.849 43.9533 92.8489 43.9534C92.8489 43.9535 92.8488 43.9536 92.8488 43.9536C92.8488 43.9537 92.8487 43.9538 92.8487 43.9539C92.8486 43.9539 92.8486 43.954 92.8485 43.9541C92.8485 43.9542 92.8485 43.9543 92.8484 43.9543C92.8484 43.9544 92.8483 43.9545 92.8483 43.9546C92.8482 43.9546 92.8482 43.9547 92.8482 43.9548C92.8481 43.9549 92.8481 43.955 92.848 43.955C92.848 43.9551 92.848 43.9552 92.8479 43.9553C92.8479 43.9553 92.8478 43.9554 92.8478 43.9555C92.8477 43.9556 92.8477 43.9557 92.8477 43.9557C92.8476 43.9558 92.8476 43.9559 92.8475 43.956C92.8475 43.9561 92.8474 43.9561 92.8474 43.9562C92.8474 43.9563 92.8473 43.9564 92.8473 43.9564C92.8472 43.9565 92.8472 43.9566 92.8471 43.9567C92.8471 43.9568 92.8471 43.9568 92.847 43.9569C92.847 43.957 92.8469 43.9571 92.8469 43.9571C92.8469 43.9572 92.8468 43.9573 92.8468 43.9574C92.8467 43.9575 92.8467 43.9575 92.8466 43.9576C92.8466 43.9577 92.8466 43.9578 92.8465 43.9578C92.8465 43.9579 92.8464 43.958 92.8464 43.9581C92.8463 43.9582 92.8463 43.9582 92.8463 43.9583C92.8462 43.9584 92.8462 43.9585 92.8461 43.9586C92.8461 43.9586 92.8461 43.9587 92.846 43.9588C92.846 43.9589 92.8459 43.9589 92.8459 43.959C92.8458 43.9591 92.8458 43.9592 92.8458 43.9593C92.8457 43.9593 92.8457 43.9594 92.8456 43.9595C92.8456 43.9596 92.8455 43.9596 92.8455 43.9597C92.8455 43.9598 92.8454 43.9599 92.8454 43.96C92.8453 43.96 92.8453 43.9601 92.8453 43.9602C92.8452 43.9603 92.8452 43.9603 92.8451 43.9604C92.8451 43.9605 92.845 43.9606 92.845 43.9607C92.845 43.9607 92.8449 43.9608 92.8449 43.9609C92.8448 43.961 92.8448 43.9611 92.8447 43.9611C92.8447 43.9612 92.8447 43.9613 92.8446 43.9614C92.8446 43.9614 92.8445 43.9615 92.8445 43.9616C92.8445 43.9617 92.8444 43.9618 92.8444 43.9618C92.8443 43.9619 92.8443 43.962 92.8442 43.9621C92.8442 43.9621 92.8442 43.9622 92.8441 43.9623C92.8441 43.9624 92.844 43.9625 92.844 43.9625C92.8439 43.9626 92.8439 43.9627 92.8439 43.9628C92.8438 43.9628 92.8438 43.9629 92.8437 43.963C92.8437 43.9631 92.8436 43.9632 92.8436 43.9632C92.8436 43.9633 92.8435 43.9634 92.8435 43.9635C92.8434 43.9636 92.8434 43.9636 92.8434 43.9637C92.8433 43.9638 92.8433 43.9639 92.8432 43.9639C92.8432 43.964 92.8431 43.9641 92.8431 43.9642C92.8431 43.9643 92.843 43.9643 92.843 43.9644C92.8429 43.9645 92.8429 43.9646 92.8428 43.9646C92.8428 43.9647 92.8428 43.9648 92.8427 43.9649C92.8427 43.965 92.8426 43.965 92.8426 43.9651C92.8426 43.9652 92.8425 43.9653 92.8425 43.9653C92.8424 43.9654 92.8424 43.9655 92.8423 43.9656C92.8423 43.9657 92.8423 43.9657 92.8422 43.9658C92.8422 43.9659 92.8421 43.966 92.8421 43.9661C92.842 43.9661 92.842 43.9662 92.842 43.9663C92.8419 43.9664 92.8419 43.9664 92.8418 43.9665C92.8418 43.9666 92.8418 43.9667 92.8417 43.9668C92.8417 43.9668 92.8416 43.9669 92.8416 43.967C92.8415 43.9671 92.8415 43.9671 92.8415 43.9672C92.8414 43.9673 92.8414 43.9674 92.8413 43.9675C92.8413 43.9675 92.8412 43.9676 92.8412 43.9677C92.8412 43.9678 92.8411 43.9678 92.8411 43.9679C92.841 43.968 92.841 43.9681 92.841 43.9682C92.8409 43.9682 92.8409 43.9683 92.8408 43.9684C92.8408 43.9685 92.8407 43.9686 92.8407 43.9686C92.8407 43.9687 92.8406 43.9688 92.8406 43.9689C92.8405 43.9689 92.8405 43.969 92.8404 43.9691C92.8404 43.9692 92.8404 43.9693 92.8403 43.9693C92.8403 43.9694 92.8402 43.9695 92.8402 43.9696C92.8402 43.9696 92.8401 43.9697 92.8401 43.9698C92.84 43.9699 92.84 43.97 92.8399 43.97C92.8399 43.9701 92.8399 43.9702 92.8398 43.9703C92.8398 43.9703 92.8397 43.9704 92.8397 43.9705C92.8396 43.9706 92.8396 43.9707 92.8396 43.9707C92.8395 43.9708 92.8395 43.9709 92.8394 43.971C92.8394 43.9711 92.8393 43.9711 92.8393 43.9712C92.8393 43.9713 92.8392 43.9714 92.8392 43.9714C92.8391 43.9715 92.8391 43.9716 92.8391 43.9717C92.839 43.9718 92.839 43.9718 92.8389 43.9719C92.8389 43.972 92.8388 43.9721 92.8388 43.9721C92.8388 43.9722 92.8387 43.9723 92.8387 43.9724C92.8386 43.9725 92.8386 43.9725 92.8385 43.9726C92.8385 43.9727 92.8385 43.9728 92.8384 43.9728C92.8384 43.9729 92.8383 43.973 92.8383 43.9731C92.8383 43.9732 92.8382 43.9732 92.8382 43.9733C92.8381 43.9734 92.8381 43.9735 92.838 43.9736C92.838 43.9736 92.838 43.9737 92.8379 43.9738C92.8379 43.9739 92.8378 43.9739 92.8378 43.974C92.8377 43.9741 92.8377 43.9742 92.8377 43.9743C92.8376 43.9743 92.8376 43.9744 92.8375 43.9745C92.8375 43.9746 92.8375 43.9746 92.8374 43.9747C92.8374 43.9748 92.8373 43.9749 92.8373 43.975C92.8372 43.975 92.8372 43.9751 92.8372 43.9752C92.8371 43.9753 92.8371 43.9753 92.837 43.9754C92.837 43.9755 92.8369 43.9756 92.8369 43.9757C92.8369 43.9757 92.8368 43.9758 92.8368 43.9759C92.8367 43.976 92.8367 43.9761 92.8367 43.9761C92.8366 43.9762 92.8366 43.9763 92.8365 43.9764C92.8365 43.9764 92.8364 43.9765 92.8364 43.9766C92.8364 43.9767 92.8363 43.9768 92.8363 43.9768C92.8362 43.9769 92.8362 43.977 92.8361 43.9771C92.8361 43.9771 92.8361 43.9772 92.836 43.9773C92.836 43.9774 92.8359 43.9775 92.8359 43.9775C92.8359 43.9776 92.8358 43.9777 92.8358 43.9778C92.8357 43.9778 92.8357 43.9779 92.8356 43.978C92.8356 43.9781 92.8356 43.9782 92.8355 43.9782C92.8355 43.9783 92.8354 43.9784 92.8354 43.9785C92.8353 43.9786 92.8353 43.9786 92.8353 43.9787C92.8352 43.9788 92.8352 43.9789 92.8351 43.9789C92.8351 43.979 92.835 43.9791 92.835 43.9792C92.835 43.9793 92.8349 43.9793 92.8349 43.9794C92.8348 43.9795 92.8348 43.9796 92.8348 43.9796C92.8347 43.9797 92.8347 43.9798 92.8346 43.9799C92.8346 43.98 92.8345 43.98 92.8345 43.9801C92.8345 43.9802 92.8344 43.9803 92.8344 43.9803C92.8343 43.9804 92.8343 43.9805 92.8342 43.9806C92.8342 43.9807 92.8342 43.9807 92.8341 43.9808C92.8341 43.9809 92.834 43.981 92.834 43.9811C92.834 43.9811 92.8339 43.9812 92.8339 43.9813C92.8338 43.9814 92.8338 43.9814 92.8337 43.9815C92.8337 43.9816 92.8337 43.9817 92.8336 43.9818C92.8336 43.9818 92.8335 43.9819 92.8335 43.982C92.8334 43.9821 92.8334 43.9821 92.8334 43.9822C92.8333 43.9823 92.8333 43.9824 92.8332 43.9825C92.8332 43.9825 92.8332 43.9826 92.8331 43.9827C92.8331 43.9828 92.833 43.9828 92.833 43.9829C92.8329 43.983 92.8329 43.9831 92.8329 43.9832C92.8328 43.9832 92.8328 43.9833 92.8327 43.9834C92.8327 43.9835 92.8326 43.9836 92.8326 43.9836C92.8326 43.9837 92.8325 43.9838 92.8325 43.9839C92.8324 43.9839 92.8324 43.984 92.8324 43.9841C92.8323 43.9842 92.8323 43.9843 92.8322 43.9843C92.8322 43.9844 92.8321 43.9845 92.8321 43.9846C92.8321 43.9846 92.832 43.9847 92.832 43.9848C92.8319 43.9849 92.8319 43.985 92.8318 43.985C92.8318 43.9851 92.8318 43.9852 92.8317 43.9853C92.8317 43.9853 92.8316 43.9854 92.8316 43.9855C92.8315 43.9856 92.8315 43.9857 92.8315 43.9857C92.8314 43.9858 92.8314 43.9859 92.8313 43.986C92.8313 43.9861 92.8313 43.9861 92.8312 43.9862C92.8312 43.9863 92.8311 43.9864 92.8311 43.9864C92.831 43.9865 92.831 43.9866 92.831 43.9867C92.8309 43.9868 92.8309 43.9868 92.8308 43.9869C92.8308 43.987 92.8307 43.9871 92.8307 43.9871C92.8307 43.9872 92.8306 43.9873 92.8306 43.9874C92.8305 43.9875 92.8305 43.9875 92.8305 43.9876C92.8304 43.9877 92.8304 43.9878 92.8303 43.9878C92.8303 43.9879 92.8302 43.988 92.8302 43.9881C92.8302 43.9882 92.8301 43.9882 92.8301 43.9883C92.83 43.9884 92.83 43.9885 92.8299 43.9886C92.8299 43.9886 92.8299 43.9887 92.8298 43.9888C92.8298 43.9889 92.8297 43.9889 92.8297 43.989C92.8297 43.9891 92.8296 43.9892 92.8296 43.9893C92.8295 43.9893 92.8295 43.9894 92.8294 43.9895C92.8294 43.9896 92.8294 43.9896 92.8293 43.9897C92.8293 43.9898 92.8292 43.9899 92.8292 43.99C92.8291 43.99 92.8291 43.9901 92.8291 43.9902C92.829 43.9903 92.829 43.9903 92.8289 43.9904C92.8289 43.9905 92.8289 43.9906 92.8288 43.9907C92.8288 43.9907 92.8287 43.9908 92.8287 43.9909C92.8286 43.991 92.8286 43.9911 92.8286 43.9911C92.8285 43.9912 92.8285 43.9913 92.8284 43.9914C92.8284 43.9914 92.8283 43.9915 92.8283 43.9916C92.8283 43.9917 92.8282 43.9918 92.8282 43.9918C92.8281 43.9919 92.8281 43.992 92.8281 43.9921C92.828 43.9921 92.828 43.9922 92.8279 43.9923C92.8279 43.9924 92.8278 43.9925 92.8278 43.9925C92.8278 43.9926 92.8277 43.9927 92.8277 43.9928C92.8276 43.9928 92.8276 43.9929 92.8275 43.993C92.8275 43.9931 92.8275 43.9932 92.8274 43.9932C92.8274 43.9933 92.8273 43.9934 92.8273 43.9935C92.8272 43.9936 92.8272 43.9936 92.8272 43.9937C92.8271 43.9938 92.8271 43.9939 92.827 43.9939C92.827 43.994 92.827 43.9941 92.8269 43.9942C92.8269 43.9943 92.8268 43.9943 92.8268 43.9944C92.8267 43.9945 92.8267 43.9946 92.8267 43.9946C92.8266 43.9947 92.8266 43.9948 92.8265 43.9949C92.8265 43.995 92.8264 43.995 92.8264 43.9951C92.8264 43.9952 92.8263 43.9953 92.8263 43.9953C92.8262 43.9954 92.8262 43.9955 92.8262 43.9956C92.8261 43.9957 92.8261 43.9957 92.826 43.9958C92.826 43.9959 92.8259 43.996 92.8259 43.9961C92.8259 43.9961 92.8258 43.9962 92.8258 43.9963C92.8257 43.9964 92.8257 43.9964 92.8256 43.9965C92.8256 43.9966 92.8256 43.9967 92.8255 43.9968C92.8255 43.9968 92.8254 43.9969 92.8254 43.997C92.8254 43.9971 92.8253 43.9971 92.8253 43.9972C92.8252 43.9973 92.8252 43.9974 92.8251 43.9975C92.8251 43.9975 92.8251 43.9976 92.825 43.9977C92.825 43.9978 92.8249 43.9978 92.8249 43.9979C92.8248 43.998 92.8248 43.9981 92.8248 43.9982C92.8247 43.9982 92.8247 43.9983 92.8246 43.9984C92.8246 43.9985 92.8246 43.9986 92.8245 43.9986C92.8245 43.9987 92.8244 43.9988 92.8244 43.9989C92.8243 43.9989 92.8243 43.999 92.8243 43.9991C92.8242 43.9992 92.8242 43.9993 92.8241 43.9993C92.8241 43.9994 92.824 43.9995 92.824 43.9996C92.824 43.9996 92.8239 43.9997 92.8239 43.9998C92.8238 43.9999 92.8238 44 92.8237 44C92.8237 44.0001 92.8237 44.0002 92.8236 44.0003C92.8236 44.0003 92.8235 44.0004 92.8235 44.0005C92.8235 44.0006 92.8234 44.0007 92.8234 44.0007C92.8233 44.0008 92.8233 44.0009 92.8232 44.001C92.8232 44.0011 92.8232 44.0011 92.8231 44.0012C92.8231 44.0013 92.823 44.0014 92.823 44.0014C92.8229 44.0015 92.8229 44.0016 92.8229 44.0017C92.8228 44.0018 92.8228 44.0018 92.8227 44.0019C92.8227 44.002 92.8227 44.0021 92.8226 44.0021C92.8226 44.0022 92.8225 44.0023 92.8225 44.0024C92.8224 44.0025 92.8224 44.0025 92.8224 44.0026C92.8223 44.0027 92.8223 44.0028 92.8222 44.0028C92.8222 44.0029 92.8221 44.003 92.8221 44.0031C92.8221 44.0032 92.822 44.0032 92.822 44.0033C92.8219 44.0034 92.8219 44.0035 92.8219 44.0036L94.5819 44.9534ZM94.6467 44.8334C94.6585 44.8115 94.6681 44.7954 94.6751 44.7844L92.9871 43.7116C92.9514 43.7678 92.918 43.8255 92.8866 43.8835L94.6467 44.8334ZM93.3562 45.128L93.8175 45.3769L94.7673 43.6169L94.306 43.3679L93.3562 45.128ZM93.4548 43.9505C93.4443 43.9667 93.4278 43.9911 93.4039 44.0251L95.041 45.1741C95.0729 45.1285 95.1031 45.0844 95.1299 45.0433L93.4548 43.9505ZM93.445 43.9706C93.3635 44.0714 93.2995 44.1772 93.2502 44.2686L95.0103 45.2184C95.0168 45.2063 95.02 45.2013 95.0196 45.2019C95.0193 45.2024 95.0177 45.2049 95.0146 45.2092C95.0116 45.2134 95.0067 45.2201 94.9999 45.2285L93.445 43.9706ZM93.2502 44.2686C93.0074 44.7186 92.871 45.2055 92.8751 45.7178L94.875 45.7019C94.874 45.5658 94.9077 45.4085 95.0103 45.2184L93.2502 44.2686ZM92.8752 45.7221C92.8813 46.2211 93.0153 46.6935 93.2741 47.1206L94.9847 46.0844C94.9122 45.9647 94.8768 45.8421 94.875 45.6976L92.8752 45.7221ZM93.2718 47.1167C93.5372 47.5595 93.914 47.8986 94.3642 48.1415L95.314 46.3814C95.1441 46.2898 95.0478 46.1896 94.987 46.0882L93.2718 47.1167ZM94.3642 48.1415L98.1593 50.1896L99.1091 48.4295L95.314 46.3814L94.3642 48.1415ZM97.7542 48.8346L97.5073 49.2921L99.2674 50.2419L99.5143 49.7844L97.7542 48.8346ZM100.436 45.3332L100.886 46.2263L100.89 46.2243L100.436 45.3332ZM98.8997 45.6322L98.8369 46.6303L98.8415 46.6305L98.8997 45.6322ZM95.8416 43.9771L95.0391 44.5737L95.0391 44.5737L95.8416 43.9771ZM95.2481 42.5285L94.2546 42.6428L95.2481 42.5285ZM96.3155 40.1557L96.8903 40.974L96.893 40.9721L96.3155 40.1557ZM97.3466 39.7436L97.4872 40.7337L97.4932 40.7328L97.3466 39.7436ZM98.483 39.863L99.363 40.3379L99.9178 39.3099L98.8166 38.9202L98.483 39.863ZM98.2321 40.328L97.9319 41.2819L98.7198 41.5298L99.1121 40.8029L98.2321 40.328ZM96.961 40.3684L97.3156 41.3034L97.3239 41.3002L96.961 40.3684ZM95.7491 42.4794L96.7414 42.3551L96.7407 42.3497L95.7491 42.4794ZM96.2644 43.6871L97.0624 43.0844L97.0609 43.0825L96.2644 43.6871ZM98.8892 45.1133L98.8078 46.11L98.8102 46.1102L98.8892 45.1133ZM100.189 44.8945L99.7625 43.9899L100.189 44.8945ZM101.345 43.1555L100.346 43.1072L100.346 43.1114L101.345 43.1555ZM101.183 42.3077L100.272 42.7216L101.183 42.3077ZM100.623 41.6039L99.7432 41.1289L99.3462 41.8646L99.9998 42.3857L100.623 41.6039ZM100.874 41.1388L101.478 40.3419L100.548 39.6371L99.9941 40.6639L100.874 41.1388ZM101.84 43.1081L100.841 43.0802L101.84 43.1081ZM100.641 43.7729C100.464 44.0996 100.245 44.3084 99.9824 44.4421L100.89 46.2243C101.545 45.8909 102.048 45.3761 102.401 44.7227L100.641 43.7729ZM99.9864 44.4401C99.6969 44.5859 99.3624 44.6575 98.9579 44.6339L98.8415 46.6305C99.5636 46.6726 100.253 46.5449 100.886 46.2263L99.9864 44.4401ZM98.9624 44.6342C98.5649 44.6092 98.1384 44.487 97.6765 44.2378L96.7267 45.9978C97.4049 46.3638 98.1104 46.5846 98.8369 46.6302L98.9624 44.6342ZM97.6765 44.2378C97.2161 43.9893 96.8816 43.6999 96.6441 43.3804L95.0391 44.5737C95.4749 45.16 96.0471 45.6311 96.7267 45.9978L97.6765 44.2378ZM96.6441 43.3804C96.4023 43.0552 96.2786 42.7363 96.2415 42.4143L94.2546 42.6428C94.3355 43.3465 94.6075 43.9932 95.0391 44.5737L96.6441 43.3804ZM96.2415 42.4143C96.2075 42.1189 96.2608 41.8244 96.4322 41.5067L94.6722 40.5569C94.3201 41.2092 94.1706 41.9126 94.2546 42.6428L96.2415 42.4143ZM96.4322 41.5067C96.5621 41.266 96.7163 41.0961 96.8903 40.974L95.7408 39.3373C95.2909 39.6533 94.9362 40.0675 94.6722 40.5569L96.4322 41.5067ZM96.893 40.9721C97.0786 40.8408 97.2729 40.7641 97.4872 40.7337L97.2059 38.7535C96.672 38.8294 96.179 39.0274 95.7381 39.3392L96.893 40.9721ZM97.4932 40.7328C97.6962 40.7027 97.9103 40.7211 98.1495 40.8057L98.8166 38.9202C98.2913 38.7344 97.7478 38.6732 97.1999 38.7544L97.4932 40.7328ZM97.603 39.3881L97.352 39.8531L99.1121 40.8029L99.363 40.3379L97.603 39.3881ZM98.5322 39.3741C97.8867 39.171 97.229 39.1908 96.598 39.4366L97.3239 41.3002C97.5268 41.2212 97.7165 41.2141 97.9319 41.2819L98.5322 39.3741ZM96.6064 39.4334C95.9393 39.6863 95.4377 40.1613 95.1017 40.7838L96.8618 41.7336C96.9953 41.4862 97.1465 41.3675 97.3156 41.3034L96.6064 39.4334ZM95.1017 40.7838C94.7954 41.3513 94.6739 41.969 94.7576 42.609L96.7407 42.3497C96.7136 42.1423 96.7471 41.9462 96.8618 41.7336L95.1017 40.7838ZM94.7569 42.6037C94.8344 43.2222 95.0849 43.7873 95.4679 44.2918L97.0609 43.0825C96.8627 42.8214 96.7697 42.5813 96.7414 42.3551L94.7569 42.6037ZM95.4664 44.2898C95.855 44.8043 96.3648 45.2166 96.9641 45.54L97.9139 43.7799C97.5231 43.5691 97.2499 43.3328 97.0624 43.0844L95.4664 44.2898ZM96.9641 45.54C97.5549 45.8589 98.1713 46.058 98.8078 46.11L98.9705 44.1166C98.6485 44.0903 98.2981 43.9873 97.9139 43.7799L96.9641 45.54ZM98.8102 46.1102C99.4409 46.1601 100.051 46.0649 100.615 45.7991L99.7625 43.9899C99.5473 44.0914 99.291 44.142 98.9681 44.1164L98.8102 46.1102ZM100.615 45.7991C101.209 45.5193 101.666 45.071 101.977 44.4941L100.217 43.5442C100.097 43.7673 99.9477 43.9027 99.7625 43.9899L100.615 45.7991ZM101.977 44.4941C102.194 44.0914 102.324 43.6574 102.344 43.1997L100.346 43.1114C100.34 43.2402 100.305 43.3819 100.217 43.5442L101.977 44.4941ZM102.344 43.2039C102.366 42.7493 102.281 42.3082 102.093 41.8939L100.272 42.7216C100.329 42.8462 100.353 42.9704 100.346 43.1072L102.344 43.2039ZM102.093 41.8939C101.9 41.4692 101.61 41.1118 101.247 40.822L99.9998 42.3857C100.137 42.4954 100.22 42.6073 100.272 42.7216L102.093 41.8939ZM101.503 42.0788L101.754 41.6137L99.9941 40.6639L99.7432 41.1289L101.503 42.0788ZM100.27 41.9358C100.48 42.0946 100.618 42.2677 100.709 42.4552L102.51 41.5844C102.271 41.0905 101.919 40.6762 101.478 40.3419L100.27 41.9358ZM100.709 42.4552C100.803 42.6491 100.847 42.8527 100.841 43.0802L102.84 43.136C102.855 42.5939 102.745 42.0719 102.51 41.5844L100.709 42.4552ZM100.841 43.0802C100.835 43.2926 100.777 43.5206 100.641 43.7729L102.401 44.7227C102.669 44.225 102.824 43.6932 102.84 43.136L100.841 43.0802ZM103.643 40.0279L104.523 40.5028L104.998 39.6228L104.118 39.1479L103.643 40.0279ZM103.396 40.4854L102.921 41.3655L103.801 41.8404L104.276 40.9603L103.396 40.4854ZM95.7158 36.3408L94.8358 35.8659L94.3609 36.7459L95.2409 37.2208L95.7158 36.3408ZM95.9627 35.8832L96.4376 35.0032L95.5576 34.5283L95.0827 35.4083L95.9627 35.8832ZM98.7941 37.4112L98.3192 38.2912L99.1992 38.7661L99.6741 37.8861L98.7941 37.4112ZM98.8184 37.3662L99.6984 37.8411L100.005 37.2721L99.6126 36.7585L98.8184 37.3662ZM98.4502 36.3346L99.4491 36.2878L99.449 36.2854L98.4502 36.3346ZM99.5569 34.2299L100.093 35.074L100.099 35.0705L99.5569 34.2299ZM100.631 33.9183L100.632 34.9184L100.641 34.9182L100.631 33.9183ZM105.653 36.304L106.533 36.7789L107.008 35.8989L106.128 35.424L105.653 36.304ZM105.408 36.7578L104.933 37.6378L105.813 38.1127L106.288 37.2327L105.408 36.7578ZM100.206 34.5171L100.484 35.4776L100.484 35.4776L100.206 34.5171ZM98.8787 36.4109L99.8786 36.3995L98.8787 36.4109ZM99.1457 37.3249L98.2956 37.8516L98.2973 37.8543L99.1457 37.3249ZM99.433 38.8923L103.168 40.9079L104.118 39.1479L100.383 37.1322L99.433 38.8923ZM102.763 39.553L102.516 40.0105L104.276 40.9603L104.523 40.5028L102.763 39.553ZM103.871 39.6054L96.1907 35.4607L95.2409 37.2208L102.921 41.3655L103.871 39.6054ZM96.5959 36.8157L96.8428 36.3582L95.0827 35.4083L94.8358 35.8659L96.5959 36.8157ZM95.4878 36.7633L98.3192 38.2912L99.269 36.5311L96.4376 35.0032L95.4878 36.7633ZM99.6741 37.8861L99.6984 37.8411L97.9383 36.8913L97.914 36.9363L99.6741 37.8861ZM99.6126 36.7585C99.5151 36.6312 99.4583 36.4852 99.4491 36.2878L97.4513 36.3814C97.4786 36.9656 97.6673 37.5074 98.0242 37.9738L99.6126 36.7585ZM99.449 36.2854C99.4401 36.1055 99.4828 35.8807 99.637 35.595L97.8769 34.6452C97.5832 35.1895 97.4213 35.7744 97.4514 36.3839L99.449 36.2854ZM99.637 35.595C99.777 35.3356 99.9332 35.1756 100.093 35.074L99.0207 33.3858C98.5323 33.6961 98.1552 34.1296 97.8769 34.6452L99.637 35.595ZM100.099 35.0705C100.254 34.9702 100.423 34.9185 100.632 34.9183L100.63 32.9183C100.05 32.9189 99.5031 33.0749 99.0152 33.3893L100.099 35.0705ZM100.641 34.9182C100.831 34.9162 101.073 34.9687 101.379 35.134L102.329 33.3739C101.79 33.0831 101.216 32.9119 100.62 32.9184L100.641 34.9182ZM101.379 35.134L105.178 37.184L106.128 35.424L102.329 33.3739L101.379 35.134ZM104.773 35.8291L104.528 36.2829L106.288 37.2327L106.533 36.7789L104.773 35.8291ZM105.883 35.8777L102.103 33.8378L101.153 35.5979L104.933 37.6378L105.883 35.8777ZM102.103 33.8378C101.424 33.4716 100.68 33.3386 99.9274 33.5566L100.484 35.4776C100.643 35.4316 100.846 35.4325 101.153 35.5979L102.103 33.8378ZM99.9274 33.5566C99.1752 33.7746 98.6197 34.2828 98.2541 34.9601L100.014 35.91C100.167 35.6273 100.326 35.5235 100.484 35.4776L99.9274 33.5566ZM98.2541 34.9601C98.0091 35.4142 97.8729 35.9055 97.8788 36.4223L99.8786 36.3995C99.8771 36.2602 99.9111 36.101 100.014 35.91L98.2541 34.9601ZM97.8788 36.4223C97.8846 36.9342 98.0263 37.4168 98.2956 37.8516L99.9958 36.7983C99.9166 36.6705 99.8803 36.5438 99.8786 36.3995L97.8788 36.4223ZM98.2973 37.8543C98.5765 38.3017 98.9704 38.6427 99.433 38.8923L100.383 37.1322C100.175 37.0202 100.061 36.903 99.9941 36.7955L98.2973 37.8543Z" fill="#A2D3DA" mask="url(#path-10-outside-1_22_7)"/>
</g>
<ellipse cx="37.8411" cy="125.54" rx="13.0111" ry="22.6982" transform="rotate(-65.6749 37.8411 125.54)" fill="url(#paint11_linear_22_7)"/>
<defs>
<filter id="filter0_d_22_7" x="15.5089" y="10.8864" width="99.5346" height="132.13" filterUnits="userSpaceOnUse" color-interpolation-filters="sRGB">
<feFlood flood-opacity="0" result="BackgroundImageFix"/>
<feColorMatrix in="SourceAlpha" type="matrix" values="0 0 0 0 0 0 0 0 0 0 0 0 0 0 0 0 0 0 127 0" result="hardAlpha"/>
<feOffset dy="4"/>
<feGaussianBlur stdDeviation="2"/>
<feComposite in2="hardAlpha" operator="out"/>
<feColorMatrix type="matrix" values="0 0 0 0 0 0 0 0 0 0 0 0 0 0 0 0 0 0 0.25 0"/>
<feBlend mode="normal" in2="BackgroundImageFix" result="effect1_dropShadow_22_7"/>
<feBlend mode="normal" in="SourceGraphic" in2="effect1_dropShadow_22_7" result="shape"/>
</filter>
<filter id="filter1_f_22_7" x="32.5" y="1.18332" width="83.517" height="95.8516" filterUnits="userSpaceOnUse" color-interpolation-filters="sRGB">
<feFlood flood-opacity="0" result="BackgroundImageFix"/>
<feBlend mode="normal" in="SourceGraphic" in2="BackgroundImageFix" result="shape"/>
<feGaussianBlur stdDeviation="2" result="effect1_foregroundBlur_22_7"/>
</filter>
<filter id="filter2_b_22_7" x="81.1331" y="28.1593" width="28.6395" height="36.0013" filterUnits="userSpaceOnUse" color-interpolation-filters="sRGB">
<feFlood flood-opacity="0" result="BackgroundImageFix"/>
<feGaussianBlur in="BackgroundImageFix" stdDeviation="2"/>
<feComposite in2="SourceAlpha" operator="in" result="effect1_backgroundBlur_22_7"/>
<feBlend mode="normal" in="SourceGraphic" in2="effect1_backgroundBlur_22_7" result="shape"/>
</filter>
<linearGradient id="paint0_linear_22_7" x1="41.1673" y1="111.943" x2="29.9526" y2="148.25" gradientUnits="userSpaceOnUse">
<stop stop-color="#EBF5F5"/>
<stop offset="1" stop-color="#497275" stop-opacity="0"/>
</linearGradient>
<linearGradient id="paint1_linear_22_7" x1="40.2294" y1="169.043" x2="55.5613" y2="182.989" gradientUnits="userSpaceOnUse">
<stop stop-color="#B3BEBF"/>
<stop offset="1" stop-color="#C4DADD" stop-opacity="0"/>
</linearGradient>
<linearGradient id="paint2_linear_22_7" x1="65.063" y1="206.175" x2="52.4757" y2="183.78" gradientUnits="userSpaceOnUse">
<stop stop-color="#B3BEBF"/>
<stop offset="1" stop-color="#C4DADD" stop-opacity="0"/>
</linearGradient>
<linearGradient id="paint3_linear_22_7" x1="68.8225" y1="128.928" x2="84.7952" y2="139.802" gradientUnits="userSpaceOnUse">
<stop stop-color="#B3BEBF"/>
<stop offset="1" stop-color="#C4DADD" stop-opacity="0"/>
</linearGradient>
<linearGradient id="paint4_linear_22_7" x1="103.756" y1="149.443" x2="92.7503" y2="131.879" gradientUnits="userSpaceOnUse">
<stop stop-color="#B3BEBF"/>
<stop offset="1" stop-color="#C4DADD" stop-opacity="0"/>
</linearGradient>
<linearGradient id="paint5_linear_22_7" x1="46.7225" y1="164.561" x2="61.2672" y2="177.282" gradientUnits="userSpaceOnUse">
<stop stop-color="#B3BEBF"/>
<stop offset="1" stop-color="#C4DADD" stop-opacity="0"/>
</linearGradient>
<linearGradient id="paint6_linear_22_7" x1="78.9266" y1="189.139" x2="70.1198" y2="170.376" gradientUnits="userSpaceOnUse">
<stop stop-color="#B3BEBF"/>
<stop offset="1" stop-color="#C4DADD" stop-opacity="0"/>
</linearGradient>
<linearGradient id="paint7_linear_22_7" x1="56.4182" y1="95.5785" x2="23.0714" y2="76.0366" gradientUnits="userSpaceOnUse">
<stop offset="0.14" stop-color="#D9E8E7"/>
<stop offset="0.725" stop-color="#B8D6D4" stop-opacity="0.03"/>
<stop offset="1" stop-color="#D0D9D8" stop-opacity="0"/>
</linearGradient>
<linearGradient id="paint8_linear_22_7" x1="67.418" y1="104.683" x2="89.0177" y2="119.652" gradientUnits="userSpaceOnUse">
<stop offset="0.14" stop-color="#D9E8E7"/>
<stop offset="0.725" stop-color="#B8D6D4" stop-opacity="0.03"/>
<stop offset="1" stop-color="#D0D9D8" stop-opacity="0"/>
</linearGradient>
<linearGradient id="paint9_linear_22_7" x1="54.5251" y1="36.3767" x2="75.8696" y2="48.2233" gradientUnits="userSpaceOnUse">
<stop stop-color="#454949"/>
<stop offset="1" stop-opacity="0"/>
</linearGradient>
<linearGradient id="paint10_linear_22_7" x1="103.953" y1="62.6597" x2="71.8691" y2="48.2914" gradientUnits="userSpaceOnUse">
<stop stop-color="#657174"/>
<stop offset="1" stop-opacity="0"/>
</linearGradient>
<linearGradient id="paint11_linear_22_7" x1="24.3542" y1="124.071" x2="48.8797" y2="126.193" gradientUnits="userSpaceOnUse">
<stop stop-color="#D9D9D9"/>
<stop offset="1" stop-color="#D9D9D9" stop-opacity="0"/>
</linearGradient>
</defs>
</svg>
